<svg width="113" height="102" viewBox="0 0 113 102" fill="none" xmlns="http://www.w3.org/2000/svg">
<rect x="0.887695" y="3.63916" width="98.3271" height="98.3271" rx="49.1635" fill="#2253FF"/>
<path d="M112.131 8.55796L98.7601 16.34L85.2917 8.55796L98.6788 0.792145L112.131 8.55796Z" fill="white"/>
<path d="M98.7604 17.1522C98.6142 17.1522 98.4842 17.1198 98.3542 17.0385L84.8859 9.27271C84.6422 9.12649 84.4797 8.86654 84.4797 8.57411C84.4797 8.28167 84.626 8.02173 84.8859 7.87551L98.2567 0.109694C98.5004 -0.0365241 98.8254 -0.0365241 99.0691 0.109694L112.537 7.87551C112.781 8.02173 112.944 8.28167 112.944 8.57411C112.944 8.86654 112.797 9.12649 112.537 9.27271L99.1665 17.0385C99.0366 17.1198 98.9066 17.1522 98.7604 17.1522ZM86.9167 8.55786L98.7604 15.3976L110.523 8.55786L98.6792 1.7181L86.9167 8.55786Z" fill="#0C5AE5"/>
<path d="M112.131 8.55789L111.936 60.1405L98.5652 67.9225L98.7601 16.34L112.131 8.55789Z" fill="#D4DDFC"/>
<path d="M98.5648 68.7348C98.4185 68.7348 98.2886 68.7023 98.1586 68.6211C97.8987 68.4749 97.7524 68.1987 97.7524 67.9063L97.9474 16.3237C97.9474 16.0313 98.1099 15.7713 98.3536 15.6251L111.724 7.8593C111.968 7.71308 112.293 7.71308 112.537 7.8593C112.797 8.00552 112.943 8.28171 112.943 8.57414L112.748 60.1567C112.748 60.4491 112.585 60.7091 112.342 60.8553L98.9709 68.6211C98.841 68.7023 98.6947 68.7348 98.5648 68.7348ZM99.572 16.8111L99.3771 66.5091L111.123 59.6855L111.318 9.98759L99.572 16.8111Z" fill="#0C5AE5"/>
<path d="M98.7595 16.34L98.5645 67.9225L85.0962 60.1405L85.2911 8.55789L98.7595 16.34Z" fill="white"/>
<path d="M98.5646 68.7348C98.4184 68.7348 98.2884 68.7023 98.1584 68.6211L84.6901 60.8553C84.4302 60.7091 84.2839 60.4329 84.2839 60.1404L84.4789 8.5579C84.4789 8.26546 84.6414 8.00552 84.8851 7.8593C85.1288 7.71308 85.4374 7.71308 85.6974 7.8593L99.1657 15.6251C99.4256 15.7713 99.5719 16.0475 99.5719 16.34L99.3769 67.9225C99.3769 68.2149 99.2144 68.4749 98.9707 68.6211C98.8408 68.7023 98.6946 68.7348 98.5646 68.7348ZM85.9086 59.6855L97.7523 66.5253L97.9472 16.8111L86.1035 9.97134L85.9086 59.6855Z" fill="#0C5AE5"/>
<path d="M91.8223 38.9064L78.4352 46.6884L64.9832 38.9064L78.354 31.1406L91.8223 38.9064Z" fill="white"/>
<path d="M78.4359 47.5006C78.2897 47.5006 78.1597 47.4681 78.0298 47.3869L64.5614 39.6211C64.3177 39.4749 64.1553 39.2149 64.1553 38.9225C64.1553 38.6301 64.3015 38.3701 64.5614 38.2239L77.9323 30.4581C78.176 30.3119 78.5009 30.3119 78.7446 30.4581L92.2129 38.2239C92.4566 38.3701 92.6191 38.6301 92.6191 38.9225C92.6191 39.2149 92.4729 39.4749 92.2129 39.6211L78.8421 47.3869C78.7284 47.4519 78.5821 47.5006 78.4359 47.5006ZM66.6085 38.9062L78.4522 45.746L90.2146 38.9062L78.3709 32.0665L66.6085 38.9062Z" fill="#0C5AE5"/>
<path d="M91.8225 38.9063L91.6276 71.383L78.2405 79.1488L78.4354 46.6884L91.8225 38.9063Z" fill="#D4DDFC"/>
<path d="M78.2401 79.961C78.0938 79.961 77.9639 79.9285 77.8339 79.8473C77.574 79.7011 77.4277 79.4249 77.4277 79.1325L77.6227 46.6558C77.6227 46.3633 77.7852 46.1034 78.0289 45.9572L91.3997 38.1914C91.6434 38.0451 91.9683 38.0451 92.212 38.1914C92.472 38.3376 92.6182 38.6138 92.6182 38.9062L92.4232 71.3829C92.4232 71.6753 92.2608 71.9353 92.0171 72.0815L78.6462 79.8473C78.5325 79.9285 78.3863 79.961 78.2401 79.961ZM79.2473 47.1432L79.0686 77.7353L90.8148 70.9118L90.9935 40.3196L79.2473 47.1432Z" fill="#0C5AE5"/>
<path d="M78.4351 46.6884L78.2402 79.1488L64.7881 71.383L64.983 38.9063L78.4351 46.6884Z" fill="white"/>
<path d="M78.2404 79.961C78.0942 79.961 77.9642 79.9285 77.8342 79.8473L64.3659 72.0815C64.1059 71.9353 63.9597 71.6591 63.9597 71.3667L64.1547 38.89C64.1547 38.5975 64.3171 38.3376 64.5608 38.1914C64.8045 38.0451 65.1132 38.0451 65.3732 38.1914L78.8415 45.9572C79.1014 46.1034 79.2476 46.3796 79.2476 46.672L79.0527 79.1487C79.0527 79.4412 78.8902 79.7011 78.6465 79.8473C78.5166 79.9285 78.3866 79.961 78.2404 79.961ZM65.6006 70.9118L77.4443 77.7515L77.6392 47.1432L65.7956 40.3034L65.6006 70.9118Z" fill="#0C5AE5"/>
<path d="M71.4986 65.8428L58.1277 73.6248L44.6594 65.859L58.0303 58.0769L71.4986 65.8428Z" fill="white"/>
<path d="M58.1281 74.4371C57.9818 74.4371 57.8519 74.4046 57.7219 74.3234L44.2536 66.5576C44.0099 66.4114 43.8474 66.1514 43.8474 65.859C43.8474 65.5666 43.9936 65.3066 44.2536 65.1604L57.6244 57.3946C57.8681 57.2484 58.1931 57.2484 58.4367 57.3946L71.9051 65.1604C72.1488 65.3066 72.3112 65.5666 72.3112 65.859C72.3112 66.1514 72.165 66.4114 71.9051 66.5576L58.5342 74.3234C58.4043 74.4046 58.2743 74.4371 58.1281 74.4371ZM46.2844 65.8427L58.1281 72.6825L69.8905 65.8427L58.0468 59.003L46.2844 65.8427Z" fill="#0C5AE5"/>
<path d="M71.4979 65.8429L71.303 82.6092L57.9321 90.3913L58.1271 73.6249L71.4979 65.8429Z" fill="#D4DDFC"/>
<path d="M57.9322 91.2035C57.786 91.2035 57.656 91.171 57.526 91.0898C57.2661 90.9436 57.1199 90.6674 57.1199 90.3749L57.3148 73.6086C57.3148 73.3161 57.4773 73.0562 57.721 72.91L71.0918 65.1441C71.3355 64.9979 71.6605 64.9979 71.9042 65.1441C72.1641 65.2904 72.3103 65.5666 72.3103 65.859L72.1154 82.6254C72.1154 82.9178 71.9529 83.1777 71.7092 83.324L58.3384 91.0898C58.2084 91.171 58.0622 91.2035 57.9322 91.2035ZM58.9395 74.096L58.7608 88.9615L70.507 82.138L70.6857 67.2724L58.9395 74.096Z" fill="#0C5AE5"/>
<path d="M58.1272 73.625L57.9322 90.3914L44.4639 82.6093L44.6588 65.8592L58.1272 73.625Z" fill="white"/>
<path d="M57.932 91.2035C57.7858 91.2035 57.6558 91.171 57.5259 91.0898L44.0575 83.324C43.7976 83.1777 43.6514 82.9015 43.6514 82.6091L43.8463 65.8427C43.8463 65.5503 44.0088 65.2904 44.2525 65.1441C44.4962 64.9979 44.8049 64.9979 45.0648 65.1441L58.5331 72.91C58.7931 73.0562 58.9393 73.3324 58.9393 73.6248L58.7443 90.3912C58.7443 90.6836 58.5819 90.9436 58.3382 91.0898C58.2082 91.171 58.062 91.2035 57.932 91.2035ZM45.276 82.1542L57.1197 88.994L57.2984 74.096L45.4547 67.2562L45.276 82.1542Z" fill="#0C5AE5"/>
</svg>
