<svg width="141" height="35" viewBox="0 0 141 35" fill="none" xmlns="http://www.w3.org/2000/svg">
<path d="M133.885 34.5146H131.309L133.761 28.9346L129.38 18.9636H131.959L135.05 26.0006L138.143 18.9636H140.722L133.885 34.5146ZM70.7846 31.3596L72.8446 30.4976C73.0578 31.0541 73.4335 31.5337 73.9229 31.8738C74.4123 32.2139 74.9927 32.3988 75.5886 32.4046C75.9763 32.4263 76.3641 32.3635 76.7251 32.2205C77.0861 32.0776 77.4118 31.8579 77.6795 31.5766C77.9472 31.2954 78.1506 30.9594 78.2757 30.5917C78.4007 30.2241 78.4444 29.8337 78.4036 29.4476V28.3936C78.0507 28.8261 77.6007 29.1693 77.0902 29.3952C76.5797 29.6211 76.0231 29.7233 75.4656 29.6936C74.1618 29.6681 72.9181 29.1404 71.9936 28.2206C71.4747 27.7149 71.0634 27.1093 70.7847 26.4404C70.5059 25.7716 70.3654 25.0532 70.3716 24.3286C70.3804 22.939 70.9128 21.6039 71.8626 20.5896C72.3275 20.0833 72.8919 19.6784 73.5205 19.4004C74.1491 19.1223 74.8283 18.977 75.5156 18.9736C76.0571 18.9598 76.5952 19.0626 77.0935 19.275C77.5918 19.4874 78.0386 19.8044 78.4036 20.2046V19.2976H80.6536V28.9266C80.7429 30.4665 80.2216 31.9795 79.2026 33.1376C78.7282 33.5988 78.1649 33.9586 77.5471 34.1954C76.9293 34.4321 76.2697 34.5407 75.6086 34.5146C74.5826 34.5252 73.5765 34.231 72.7177 33.6694C71.8589 33.1077 71.1862 32.3039 70.7846 31.3596ZM72.7286 24.3596C72.6894 24.7688 72.7363 25.1817 72.8663 25.5716C72.9963 25.9616 73.2066 26.32 73.4836 26.6237C73.7606 26.9275 74.0981 27.1698 74.4745 27.3351C74.8508 27.5005 75.2576 27.5851 75.6687 27.5837C76.0798 27.5822 76.486 27.4946 76.8611 27.3266C77.2363 27.1586 77.5721 26.9138 77.8469 26.6081C78.1217 26.3024 78.3294 25.9425 78.4566 25.5516C78.5839 25.1607 78.6278 24.7475 78.5856 24.3386C78.6156 23.9355 78.565 23.5305 78.4368 23.1472C78.3085 22.7639 78.1052 22.41 77.8387 22.1061C77.5721 21.8023 77.2477 21.5546 76.8844 21.3774C76.5211 21.2003 76.1262 21.0974 75.7226 21.0746C75.3072 21.0847 74.8982 21.1788 74.5202 21.3513C74.1422 21.5238 73.8031 21.7712 73.5233 22.0783C73.2435 22.3855 73.0288 22.7462 72.8922 23.1386C72.7557 23.531 72.7 23.9471 72.7286 24.3616V24.3596ZM13.2456 22.1026L16.7456 25.5976L1.98462 33.6756C1.88166 33.7338 1.77434 33.784 1.66362 33.8256L13.2456 22.1026ZM0.117622 32.4866C0.108622 31.2846 0.0146222 12.2206 0.00862215 10.7906C-0.0195007 10.5384 0.0214716 10.2832 0.127157 10.0525C0.232842 9.82173 0.399264 9.62405 0.608622 9.48059L12.7396 21.5986L0.661622 33.8226C0.46815 33.6617 0.3173 33.4557 0.222416 33.2227C0.127533 32.9896 0.0915399 32.7368 0.117622 32.4866ZM31.8176 27.1046C31.0637 26.3427 30.4672 25.4397 30.0624 24.4472C29.6575 23.4547 29.4522 22.3922 29.4581 21.3203C29.4641 20.2485 29.6812 19.1883 30.097 18.2003C30.5128 17.2124 31.1193 16.3161 31.8816 15.5626C33.4119 13.9877 35.4995 13.0769 37.6949 13.0264C39.8902 12.9759 42.0176 13.7897 43.6186 15.2926L42.0306 16.9406C40.9327 15.8823 39.4656 15.2933 37.9406 15.2986C36.3329 15.2978 34.7907 15.9357 33.6533 17.072C32.5159 18.2083 31.8764 19.7498 31.8756 21.3576C31.8748 22.9653 32.5127 24.5075 33.649 25.6449C34.7853 26.7824 36.3269 27.4218 37.9346 27.4226C40.2556 27.4226 43.0666 26.2326 43.3496 22.8816H37.9206V20.6146H45.5696C45.6685 21.1083 45.7144 21.6111 45.7066 22.1146C45.7365 23.1301 45.5574 24.141 45.1805 25.0845C44.8036 26.028 44.2369 26.8841 43.5156 27.5996C42.0116 28.9916 40.0244 29.7427 37.9756 29.6936C36.8266 29.7043 35.6875 29.4803 34.6281 29.0353C33.5687 28.5903 32.6113 27.9336 31.8146 27.1056L31.8176 27.1046ZM87.7276 28.2676C87.1993 27.7568 86.7832 27.1414 86.506 26.4608C86.2288 25.7801 86.0965 25.0492 86.1176 24.3146C86.0795 23.6312 86.1801 22.9473 86.4134 22.3038C86.6466 21.6604 87.0077 21.0709 87.4749 20.5707C87.9421 20.0706 88.5057 19.6702 89.1317 19.3936C89.7577 19.1171 90.4333 18.9701 91.1176 18.9616C92.1183 18.9612 93.0917 19.2878 93.8896 19.8916C94.6411 20.4621 95.2235 21.2259 95.5746 22.1016L95.9476 22.9766L88.7616 25.9576C88.9852 26.4612 89.3556 26.8856 89.8243 27.1753C90.293 27.4651 90.8382 27.6067 91.3886 27.5816C91.9167 27.5906 92.4377 27.4589 92.8982 27.2C93.3586 26.9412 93.7419 26.5645 94.0086 26.1086L95.8606 27.3396C95.362 28.0692 94.692 28.6652 93.9093 29.0755C93.1267 29.4857 92.2553 29.6976 91.3716 29.6926C90.0184 29.7029 88.7128 29.1932 87.7246 28.2686L87.7276 28.2676ZM89.1086 22.0546C88.8457 22.3369 88.6459 22.672 88.5224 23.0375C88.399 23.403 88.3547 23.7906 88.3926 24.1746L93.1926 22.1696C93.0055 21.8094 92.7194 21.5102 92.3678 21.3074C92.0163 21.1045 91.6141 21.0064 91.2086 21.0246C90.8061 21.0401 90.4112 21.1398 90.0496 21.3172C89.6879 21.4946 89.3673 21.7458 89.1086 22.0546ZM60.0226 28.0756C59.0492 27.0551 58.5112 25.6958 58.5226 24.2856C58.5204 23.5809 58.6587 22.8829 58.9295 22.2324C59.2002 21.5818 59.598 20.9918 60.0995 20.4968C60.601 20.0018 61.1962 19.6118 61.8503 19.3496C62.5043 19.0873 63.2041 18.9581 63.9086 18.9696C65.2507 18.9685 66.5483 19.4501 67.5646 20.3266C68.1292 20.8295 68.5762 21.4503 68.8742 22.1452C69.1721 22.8401 69.3136 23.592 69.2886 24.3476C69.2997 25.0519 69.1691 25.7513 68.9046 26.4042C68.6401 27.0571 68.247 27.6502 67.7488 28.1482C67.2506 28.6462 66.6574 29.0391 66.0044 29.3033C65.3514 29.5676 64.652 29.6979 63.9476 29.6866C63.2184 29.6977 62.4945 29.5606 61.8199 29.2837C61.1452 29.0068 60.5338 28.5958 60.0226 28.0756ZM63.9406 21.0756C63.5331 21.0715 63.1291 21.1517 62.754 21.311C62.3788 21.4704 62.0407 21.7055 61.7606 22.0016C61.1824 22.6315 60.8684 23.4596 60.8836 24.3146C60.8533 24.7311 60.909 25.1493 61.0474 25.5434C61.1857 25.9374 61.4036 26.2987 61.6876 26.6049C61.9716 26.911 62.3155 27.1555 62.6981 27.323C63.0806 27.4905 63.4935 27.5774 63.9111 27.5785C64.3287 27.5795 64.742 27.4946 65.1253 27.329C65.5087 27.1634 65.8539 26.9206 66.1394 26.6159C66.4248 26.3111 66.6446 25.9509 66.7848 25.5575C66.9251 25.1642 66.9829 24.7462 66.9546 24.3296C66.9805 23.9167 66.9225 23.5028 66.7842 23.1129C66.6458 22.723 66.43 22.3651 66.1497 22.0608C65.8695 21.7565 65.5305 21.5121 65.1532 21.3422C64.776 21.1724 64.3683 21.0807 63.9546 21.0726L63.9406 21.0756ZM48.1786 28.0756C47.2053 27.0551 46.6673 25.6958 46.6786 24.2856C46.6764 23.5808 46.8148 22.8826 47.0857 22.2319C47.3565 21.5812 47.7545 20.9911 48.2562 20.4961C48.7579 20.001 49.3534 19.6111 50.0076 19.349C50.6619 19.0869 51.3619 18.9579 52.0666 18.9696C53.4092 18.9688 54.7074 19.4504 55.7246 20.3266C56.2882 20.8301 56.7344 21.4512 57.0318 22.1459C57.3291 22.8407 57.4704 23.5923 57.4456 24.3476C57.4541 25.0587 57.3194 25.7643 57.0495 26.4223C56.7796 27.0803 56.3801 27.6772 55.8746 28.1776C54.8297 29.1645 53.4416 29.706 52.0044 29.6873C50.5671 29.6686 49.1936 29.0913 48.1746 28.0776L48.1786 28.0756ZM52.0966 21.0756H52.0916C51.6845 21.0721 51.2809 21.1525 50.9062 21.3119C50.5315 21.4712 50.1936 21.706 49.9136 22.0016C49.3361 22.632 49.0223 23.4598 49.0366 24.3146C49.0063 24.7311 49.062 25.1493 49.2004 25.5434C49.3387 25.9374 49.5566 26.2987 49.8406 26.6049C50.1246 26.911 50.4685 27.1555 50.8511 27.323C51.2336 27.4905 51.6465 27.5774 52.0641 27.5785C52.4817 27.5795 52.895 27.4946 53.2783 27.329C53.6617 27.1634 54.0069 26.9206 54.2924 26.6159C54.5778 26.3111 54.7976 25.9509 54.9378 25.5575C55.0781 25.1642 55.1359 24.7462 55.1076 24.3296C55.1333 23.9161 55.0751 23.5017 54.9362 23.1114C54.7974 22.7211 54.581 22.363 54.3 22.0586C54.019 21.7543 53.6792 21.51 53.3012 21.3405C52.9232 21.171 52.5148 21.0799 52.1006 21.0726L52.0966 21.0756ZM119.636 28.5266C119.299 28.1018 119.053 27.6122 118.915 27.0882C118.776 26.5643 118.746 26.0173 118.829 25.4816C118.962 24.6067 119.396 23.8057 120.056 23.2168C120.717 22.6279 121.562 22.2879 122.447 22.2556C122.656 22.2346 122.875 22.2236 123.097 22.2236C124.1 22.2471 125.097 22.399 126.062 22.6756C125.965 22.0129 125.621 21.4114 125.099 20.9923C124.577 20.5731 123.915 20.3674 123.248 20.4166C122.696 20.4045 122.15 20.5404 121.669 20.8101C121.187 21.0799 120.786 21.4737 120.508 21.9506L118.608 20.6776C119.127 19.9134 119.827 19.2896 120.645 18.8616C121.464 18.4336 122.376 18.2147 123.3 18.2246C124.025 18.212 124.746 18.3473 125.418 18.6224C126.09 18.8975 126.698 19.3065 127.207 19.8246C127.677 20.3444 128.032 20.9569 128.251 21.6225C128.47 22.2882 128.547 22.9923 128.478 23.6896V29.3746H126.118V28.0986C125.595 28.7616 124.878 29.2437 124.067 29.4766C123.58 29.6083 123.079 29.6755 122.575 29.6766C122.032 29.6983 121.491 29.6075 120.985 29.41C120.479 29.2124 120.02 28.9123 119.636 28.5286V28.5266ZM121.285 25.8886C121.28 26.1024 121.318 26.3151 121.398 26.5135C121.478 26.7119 121.598 26.892 121.749 27.0428C121.901 27.1935 122.082 27.3118 122.281 27.3903C122.48 27.4688 122.693 27.506 122.907 27.4996C123.109 27.4982 123.311 27.4699 123.507 27.4156C124.14 27.2626 124.719 26.9381 125.179 26.4776C125.64 26.0172 125.965 25.4387 126.119 24.8056C125.481 24.5835 124.823 24.4257 124.155 24.3346C123.914 24.2974 123.67 24.278 123.427 24.2766C121.871 24.2796 121.301 25.1476 121.286 25.8906L121.285 25.8886ZM116.457 29.3726H114.097V13.5726H116.458V29.3726H116.457ZM103.936 29.3726H101.579V13.5726H103.939H107.293C108.627 13.5726 109.907 14.1027 110.851 15.0464C111.794 15.9901 112.325 17.27 112.325 18.6046C112.325 19.9392 111.794 21.2191 110.851 22.1627C109.907 23.1064 108.627 23.6366 107.293 23.6366H103.939V29.3676L103.936 29.3726ZM103.942 21.2806H107.292C107.991 21.267 108.658 20.9796 109.148 20.4801C109.637 19.9806 109.912 19.3088 109.912 18.6091C109.912 17.9094 109.637 17.2376 109.148 16.7381C108.658 16.2385 107.991 15.9511 107.292 15.9376H103.942V21.2806ZM84.8086 29.3746H82.4476V13.5746H84.8086V29.3746ZM13.7476 21.5956L17.3946 17.9046L22.4166 20.6436C23.6546 21.3186 23.0166 22.1626 22.4166 22.4936L17.3986 25.2406L13.7476 21.5956ZM1.46962 9.33559C1.64974 9.35708 1.82433 9.41167 1.98462 9.49659L16.7426 17.5486L13.2426 21.0906L1.46962 9.33559ZM29.9326 4.29859C29.9511 3.29405 30.361 2.33641 31.0751 1.62962C31.7892 0.922837 32.7509 0.522756 33.7556 0.514586C34.7314 0.501078 35.6733 0.872156 36.3776 1.54759L35.6546 2.29759C35.2662 1.92905 34.7775 1.68342 34.25 1.5915C33.7225 1.49958 33.1796 1.56546 32.6894 1.78088C32.1992 1.99629 31.7835 2.35166 31.4944 2.8024C31.2054 3.25315 31.0559 3.7792 31.0646 4.31459C31.0592 4.67521 31.1258 5.03329 31.2605 5.36783C31.3953 5.70237 31.5955 6.00664 31.8494 6.26278C32.1033 6.51892 32.4058 6.72179 32.7391 6.85947C33.0725 6.99716 33.43 7.06689 33.7906 7.06459C34.3912 7.11593 34.9876 6.92726 35.4494 6.53987C35.9112 6.15249 36.2007 5.59793 36.2546 4.99759H33.7856V3.96759H37.2666C37.2676 3.97016 37.2676 3.97301 37.2666 3.97559C37.31 4.19892 37.3304 4.4261 37.3276 4.65359C37.3442 5.11692 37.264 5.57862 37.092 6.0092C36.9201 6.43977 36.6603 6.82976 36.3291 7.15424C35.9979 7.47872 35.6027 7.73056 35.1688 7.89368C34.7348 8.0568 34.2715 8.12761 33.8086 8.10159C32.791 8.10906 31.8118 7.71311 31.0854 7.00038C30.359 6.28765 29.9445 5.31619 29.9326 4.29859ZM61.8616 6.90459C61.1937 6.20032 60.8175 5.26915 60.8086 4.29859C60.8086 3.28466 61.2114 2.31227 61.9284 1.59532C62.6453 0.878365 63.6177 0.475586 64.6316 0.475586C65.6455 0.475586 66.6179 0.878365 67.3349 1.59532C68.0518 2.31227 68.4546 3.28466 68.4546 4.29859C68.4529 5.06221 68.222 5.80774 67.7919 6.4387C67.3617 7.06967 66.7522 7.55704 66.042 7.83774C65.3318 8.11845 64.5538 8.17957 63.8085 8.01321C63.0632 7.84684 62.385 7.46064 61.8616 6.90459ZM61.9366 4.31459C61.9268 4.67415 61.9892 5.03202 62.12 5.36708C62.2508 5.70214 62.4475 6.00758 62.6983 6.26537C62.9492 6.52315 63.2491 6.72805 63.5805 6.86796C63.9119 7.00787 64.2679 7.07996 64.6276 7.07996C64.9873 7.07996 65.3434 7.00787 65.6747 6.86796C66.0061 6.72805 66.3061 6.52315 66.5569 6.26537C66.8078 6.00758 67.0044 5.70214 67.1352 5.36708C67.2661 5.03202 67.3284 4.67415 67.3186 4.31459C67.3284 3.95503 67.2661 3.59715 67.1352 3.26209C67.0044 2.92703 66.8078 2.62159 66.5569 2.3638C66.3061 2.10602 66.0061 1.90112 65.6747 1.76121C65.3434 1.6213 64.9873 1.54922 64.6276 1.54922C64.2679 1.54922 63.9119 1.6213 63.5805 1.76121C63.2491 1.90112 62.9492 2.10602 62.6983 2.3638C62.4475 2.62159 62.2508 2.92703 62.12 3.26209C61.9892 3.59715 61.9268 3.95503 61.9366 4.31459ZM74.0466 7.95459L70.5976 2.71459V7.95459H69.5236V0.766586H70.5976L74.0456 5.99959V0.766586H75.1196V7.95459H74.0466ZM56.2756 7.95459H55.2026V1.84059H53.4406V0.766586H58.0406V1.84059H56.2766V7.95359L56.2756 7.95459ZM46.5486 7.95459H45.4756V1.84059H43.7086V0.766586H48.3086V1.84059H46.5506V7.95359L46.5486 7.95459ZM42.5806 7.95459H38.4616V0.766586H42.5816V1.84059H39.5356V3.82459H42.2146V4.89859H39.5356V6.88059H42.5816V7.95359L42.5806 7.95459ZM52.5586 7.95459H51.4896V0.763586H52.5596V7.95259L52.5586 7.95459Z" fill="white"/>
</svg>
