<svg width="140" height="36" viewBox="0 0 140 36" fill="none" xmlns="http://www.w3.org/2000/svg">
<path d="M68.252 35.4756H65.774V19.4096H68.174V21.4866H68.22C68.5786 20.7817 69.1306 20.1937 69.8114 19.7913C70.4922 19.3889 71.2736 19.1889 72.064 19.2146C75.152 19.2146 77.148 21.6606 77.148 25.4456C77.148 29.2306 75.17 31.6876 72.11 31.6876C71.3349 31.7147 70.5677 31.5237 69.8959 31.1361C69.224 30.7486 68.6745 30.1802 68.31 29.4956H68.252V35.4756ZM71.408 21.3036C69.514 21.3036 68.241 22.9686 68.241 25.4466C68.241 27.9636 69.484 29.5896 71.408 29.5896C73.375 29.5896 74.598 28.0026 74.598 25.4466C74.598 22.8906 73.376 21.3036 71.409 21.3036H71.408ZM54.416 35.4756H51.937V19.4096H54.337V21.4866H54.383C54.7416 20.7821 55.2936 20.1943 55.9742 19.7921C56.6548 19.3899 57.4358 19.19 58.226 19.2156C61.314 19.2156 63.31 21.6616 63.31 25.4466C63.31 29.2316 61.332 31.6886 58.272 31.6886C57.4969 31.7157 56.7297 31.5247 56.0579 31.1371C55.386 30.7496 54.8365 30.1812 54.472 29.4966H54.416V35.4756ZM57.572 21.3036C55.678 21.3036 54.405 22.9686 54.405 25.4466C54.405 27.9636 55.648 29.5896 57.572 29.5896C59.539 29.5896 60.762 28.0026 60.762 25.4466C60.762 22.8906 59.539 21.3036 57.572 21.3036ZM8.22598 32.1566C6.14097 32.1566 4.52598 29.8426 3.34598 28.1566C1.81112 25.8469 0.769399 23.2453 0.285975 20.5146C-0.327452 17.694 0.0526664 14.7481 1.36198 12.1756C2.0115 11.0085 2.95248 10.0298 4.0931 9.33485C5.23371 8.63993 6.535 8.25258 7.86998 8.21059H7.95998C9.05667 8.27782 10.1303 8.55447 11.123 9.02559H11.133H11.139H11.145C11.7643 9.33181 12.433 9.52581 13.12 9.59859C13.7715 9.51942 14.4054 9.33289 14.996 9.04659H15.006H15.015H15.02C16.1682 8.51399 17.4057 8.19996 18.669 8.12059C18.815 8.12059 18.986 8.12959 19.177 8.14659C20.322 8.18355 21.4428 8.48652 22.4505 9.03151C23.4582 9.5765 24.3252 10.3486 24.983 11.2866C23.9512 11.9255 23.0964 12.8134 22.4973 13.8688C21.8981 14.9241 21.5738 16.1132 21.554 17.3266C21.5437 18.2615 21.7271 19.1884 22.0926 20.0489C22.4582 20.9094 22.998 21.6849 23.678 22.3266C24.2937 22.9201 25.0138 23.3947 25.802 23.7266V23.7346C25.299 25.3355 24.554 26.85 23.593 28.2256C22.193 30.3316 20.855 32.0776 18.762 32.1086H18.644C17.8352 32.092 17.0404 31.8945 16.318 31.5306H16.312C15.4473 31.1079 14.4994 30.8831 13.537 30.8726C12.5321 30.8769 11.541 31.1069 10.637 31.5456H10.632H10.622H10.617C9.90268 31.8963 9.12617 32.1026 8.33197 32.1526H8.22598V32.1566ZM90.809 31.7566C89.2132 31.8211 87.6407 31.3567 86.336 30.4356C85.7841 30.0144 85.3329 29.4757 85.0148 28.8586C84.6968 28.2415 84.5199 27.5614 84.497 26.8676H87.033C87.215 28.4946 88.805 29.5876 90.992 29.5876C93.073 29.5876 94.583 28.5116 94.583 27.0286C94.583 25.7446 93.67 24.9716 91.531 24.4466L89.385 23.9296C86.347 23.1966 84.932 21.7776 84.932 19.4656C84.932 16.6276 87.41 14.6466 90.957 14.6466C94.452 14.6466 96.857 16.5836 96.935 19.4656H94.435C94.287 17.8306 92.941 16.8156 90.923 16.8156C88.943 16.8156 87.561 17.8346 87.561 19.2946C87.561 20.4616 88.432 21.1526 90.568 21.6816L92.392 22.1286C93.7436 22.3618 95.011 22.9436 96.069 23.8166C96.4514 24.1928 96.7497 24.6458 96.9445 25.1456C97.1393 25.6454 97.226 26.1808 97.199 26.7166C97.199 29.8276 94.75 31.7576 90.808 31.7576L90.809 31.7566ZM134.392 31.7106C130.881 31.7106 128.7 29.3316 128.7 25.5026C128.63 23.8433 129.169 22.2156 130.216 20.9266C130.727 20.3576 131.357 19.9074 132.06 19.6075C132.764 19.3076 133.525 19.1653 134.289 19.1906C135.031 19.1622 135.77 19.2939 136.456 19.577C137.142 19.86 137.759 20.2876 138.265 20.8306C139.279 22.0605 139.8 23.6232 139.728 25.2156V26.0656H131.201V26.2146C131.154 26.6637 131.204 27.1176 131.347 27.5458C131.49 27.974 131.724 28.3666 132.031 28.6971C132.339 29.0276 132.714 29.2883 133.131 29.4618C133.547 29.6352 133.997 29.7173 134.448 29.7026C135.042 29.7523 135.636 29.6066 136.139 29.2876C136.643 28.9686 137.028 28.4939 137.237 27.9356H139.59C139.501 28.477 139.305 28.9955 139.015 29.4612C138.725 29.9269 138.346 30.3308 137.899 30.6496C136.873 31.3689 135.644 31.7411 134.391 31.7116L134.392 31.7106ZM134.292 21.1876C133.469 21.2015 132.684 21.5394 132.109 22.128C131.533 22.7165 131.213 23.5083 131.217 24.3316H137.253C137.278 23.9273 137.22 23.5222 137.082 23.1414C136.945 22.7605 136.73 22.412 136.452 22.1174C136.174 21.8228 135.839 21.5885 135.466 21.4289C135.094 21.2693 134.693 21.1878 134.288 21.1896L134.292 21.1876ZM112.766 31.7116C111.994 31.7411 111.225 31.6073 110.508 31.3188C109.792 31.0303 109.144 30.5937 108.608 30.0376C107.522 28.7609 106.962 27.1197 107.04 25.4456C106.963 23.7742 107.524 22.136 108.611 20.8636C109.728 19.7916 111.217 19.1931 112.765 19.1931C114.313 19.1931 115.802 19.7916 116.919 20.8636C118.006 22.1356 118.568 23.774 118.491 25.4456C118.569 27.1196 118.008 28.7608 116.923 30.0376C116.387 30.5934 115.74 31.0299 115.023 31.3183C114.307 31.6068 113.538 31.7408 112.766 31.7116ZM112.766 21.2356C111.002 21.2356 109.566 23.1286 109.566 25.4556C109.566 27.7826 111.001 29.6746 112.766 29.6746C114.531 29.6746 115.966 27.7816 115.966 25.4556C115.966 23.1296 114.526 21.2356 112.765 21.2356H112.766ZM103.888 31.5626C101.444 31.5626 100.488 30.6486 100.488 28.3036V21.3756H98.734V19.4096H100.49V16.5536H102.98V19.4106H105.275V21.3756H102.98V28.0306C102.98 29.0786 103.433 29.5456 104.449 29.5456C104.722 29.5471 104.994 29.5277 105.264 29.4876V31.4506C104.81 31.5339 104.349 31.5714 103.887 31.5626H103.888ZM37.788 31.4836H35.117L41.096 14.9236H43.873L49.852 31.4816H47.132L45.617 27.0056H39.306L37.791 31.4816L37.788 31.4836ZM42.426 17.6756L39.959 24.9396H44.959L42.496 17.6756H42.426ZM123.446 31.4806H120.967V19.4096H123.331V21.4646H123.389C123.541 20.8142 123.913 20.2358 124.441 19.8264C124.969 19.417 125.621 19.2014 126.289 19.2156C126.574 19.2194 126.859 19.2502 127.138 19.3076V21.6136C126.777 21.5097 126.402 21.4631 126.026 21.4756C125.666 21.46 125.306 21.5228 124.973 21.6596C124.639 21.7964 124.339 22.004 124.094 22.2681C123.848 22.5321 123.663 22.8463 123.551 23.1889C123.439 23.5316 123.402 23.8945 123.444 24.2526V31.4816L123.446 31.4806ZM125.789 10.3256C124.013 10.3256 122.909 9.09559 122.909 7.11659C122.873 6.26397 123.146 5.42709 123.678 4.75959C123.934 4.46632 124.252 4.23348 124.608 4.07784C124.965 3.92221 125.352 3.84767 125.741 3.85959C127.424 3.85959 128.47 5.05959 128.47 6.97859V7.37859H123.986V7.43859C123.958 7.69257 123.985 7.94956 124.065 8.19228C124.145 8.435 124.276 8.65782 124.449 8.84577C124.622 9.03372 124.833 9.18244 125.068 9.28193C125.304 9.38142 125.558 9.42938 125.813 9.42259C126.145 9.45312 126.478 9.37218 126.759 9.19253C127.039 9.01289 127.252 8.74479 127.364 8.43059H128.393C128.258 9.00589 127.92 9.51357 127.443 9.86145C126.965 10.2093 126.378 10.3744 125.789 10.3266V10.3256ZM125.722 4.76559C125.255 4.77453 124.811 4.96814 124.486 5.30401C124.162 5.63989 123.984 6.09065 123.991 6.55759H127.391C127.408 6.32864 127.378 6.09863 127.302 5.88198C127.226 5.66533 127.106 5.46671 126.95 5.29857C126.793 5.13042 126.604 4.99638 126.393 4.90483C126.183 4.81329 125.956 4.76623 125.726 4.76659L125.722 4.76559ZM87.482 10.3256C85.882 10.3256 84.806 9.02559 84.806 7.09159C84.806 5.15759 85.872 3.85759 87.457 3.85759C87.8595 3.84477 88.2579 3.94271 88.6086 4.14073C88.9594 4.33876 89.249 4.62926 89.446 4.98059H89.47V1.54459H90.516V10.2186H89.516V9.16059H89.498C89.3008 9.52057 89.0087 9.81961 88.6534 10.0252C88.2982 10.2308 87.8933 10.335 87.483 10.3266L87.482 10.3256ZM87.682 4.77759C86.582 4.77759 85.882 5.68659 85.882 7.09259C85.882 8.51959 86.573 9.40659 87.682 9.40659C88.758 9.40659 89.482 8.47659 89.482 7.09259C89.482 5.70859 88.756 4.77559 87.681 4.77559L87.682 4.77759ZM80.352 10.3266C80.0891 10.3549 79.8233 10.3274 79.5718 10.2459C79.3203 10.1644 79.0888 10.0307 78.8925 9.85368C78.6962 9.67662 78.5394 9.46013 78.4325 9.21835C78.3256 8.97657 78.2709 8.71495 78.272 8.45059C78.272 7.37359 79.098 6.70759 80.538 6.62259L82.33 6.52259V5.99859C82.33 5.23459 81.818 4.77859 80.959 4.77859C80.6386 4.73812 80.3146 4.81684 80.0485 4.99975C79.7825 5.18266 79.5929 5.45701 79.516 5.77059H78.506C78.581 5.18861 78.8841 4.66026 79.3486 4.30171C79.8131 3.94316 80.401 3.78377 80.983 3.85859C82.436 3.85859 83.375 4.65859 83.375 5.89659V10.2186H82.383V9.14259H82.359C82.1628 9.50305 81.8726 9.80354 81.5192 10.012C81.1657 10.2206 80.7623 10.3293 80.352 10.3266ZM82.326 7.33259L80.655 7.43259C79.815 7.48659 79.333 7.85659 79.333 8.44859C79.333 9.04059 79.833 9.43459 80.583 9.43459C80.8029 9.44907 81.0235 9.41897 81.2315 9.34608C81.4395 9.2732 81.6307 9.15903 81.7934 9.01044C81.9562 8.86184 82.0873 8.68189 82.1788 8.48137C82.2703 8.28086 82.3204 8.06392 82.326 7.84359V7.33259ZM97.866 10.3266C97.0557 10.2781 96.2974 9.91143 95.7561 9.30648C95.2148 8.70154 94.9344 7.90727 94.976 7.09659C94.9305 6.68998 94.9714 6.27835 95.0959 5.88861C95.2204 5.49888 95.4257 5.1398 95.6985 4.83484C95.9713 4.52989 96.3053 4.28593 96.6788 4.1189C97.0523 3.95187 97.4568 3.86553 97.866 3.86553C98.2751 3.86553 98.6797 3.95187 99.0532 4.1189C99.4267 4.28593 99.7607 4.52989 100.033 4.83484C100.306 5.1398 100.512 5.49888 100.636 5.88861C100.761 6.27835 100.801 6.68998 100.756 7.09659C100.798 7.90727 100.517 8.70154 99.9759 9.30648C99.4346 9.91143 98.6763 10.2781 97.866 10.3266ZM97.866 4.78659C97.3204 4.8577 96.824 5.13862 96.4822 5.56972C96.1403 6.00081 95.9799 6.54816 96.035 7.09559C95.97 7.37155 95.9683 7.65863 96.03 7.93534C96.0917 8.21205 96.2152 8.47123 96.3912 8.69348C96.5672 8.91573 96.7912 9.09529 97.0464 9.21873C97.3016 9.34216 97.5815 9.40628 97.865 9.40628C98.1485 9.40628 98.4283 9.34216 98.6835 9.21873C98.9388 9.09529 99.1628 8.91573 99.3388 8.69348C99.5148 8.47123 99.6383 8.21205 99.6999 7.93534C99.7616 7.65863 99.7599 7.37155 99.695 7.09559C99.7506 6.54825 99.5907 6.00078 99.2492 5.56946C98.9077 5.13813 98.4115 4.85693 97.866 4.78559V4.78659ZM74.177 10.3246C73.3667 10.2761 72.6084 9.90943 72.0671 9.30448C71.5258 8.69954 71.2454 7.90527 71.287 7.09459C71.2415 6.68798 71.2824 6.27635 71.4069 5.88661C71.5314 5.49688 71.7367 5.1378 72.0095 4.83284C72.2823 4.52789 72.6163 4.28393 72.9898 4.1169C73.3633 3.94987 73.7678 3.86353 74.177 3.86353C74.5861 3.86353 74.9907 3.94987 75.3642 4.1169C75.7376 4.28393 76.0717 4.52789 76.3445 4.83284C76.6172 5.1378 76.8226 5.49688 76.9471 5.88661C77.0716 6.27635 77.1124 6.68798 77.067 7.09459C77.1085 7.90527 76.8281 8.69954 76.2869 9.30448C75.7456 9.90943 74.9873 10.2761 74.177 10.3246ZM74.177 4.78459C73.6315 4.8557 73.1352 5.13665 72.7935 5.56778C72.4518 5.99891 72.2916 6.54626 72.347 7.09359C72.2817 7.36965 72.2797 7.65692 72.3412 7.93387C72.4026 8.21081 72.526 8.47025 72.702 8.69274C72.878 8.91524 73.1021 9.09502 73.3574 9.21861C73.6128 9.3422 73.8928 9.4064 74.1765 9.4064C74.4602 9.4064 74.7402 9.3422 74.9955 9.21861C75.2509 9.09502 75.4749 8.91524 75.6509 8.69274C75.8269 8.47025 75.9503 8.21081 76.0118 7.93387C76.0733 7.65692 76.0713 7.36965 76.006 7.09359C76.0614 6.54641 75.9013 5.9992 75.5598 5.56809C75.2183 5.13699 74.7223 4.85594 74.177 4.78459ZM48.197 10.3236C47.3868 10.2753 46.6284 9.9089 46.0872 9.30411C45.5459 8.69932 45.2654 7.90517 45.307 7.09459C45.2615 6.68798 45.3024 6.27635 45.4269 5.88661C45.5514 5.49688 45.7567 5.1378 46.0295 4.83284C46.3023 4.52789 46.6363 4.28393 47.0098 4.1169C47.3833 3.94987 47.7878 3.86353 48.197 3.86353C48.6061 3.86353 49.0107 3.94987 49.3841 4.1169C49.7576 4.28393 50.0917 4.52789 50.3644 4.83284C50.6372 5.1378 50.8426 5.49688 50.9671 5.88661C51.0916 6.27635 51.1324 6.68798 51.087 7.09459C51.1285 7.90517 50.8481 8.69932 50.3068 9.30411C49.7655 9.9089 49.0072 10.2753 48.197 10.3236ZM48.197 4.78459C47.6515 4.8557 47.1552 5.13665 46.8135 5.56778C46.4718 5.99891 46.3116 6.54626 46.367 7.09359C46.3116 7.64102 46.4717 8.18849 46.8134 8.61978C47.1551 9.05107 47.6514 9.33224 48.197 9.40359C48.7424 9.332 49.2384 9.05074 49.5799 8.61947C49.9214 8.1882 50.0814 7.64087 50.026 7.09359C50.0816 6.5464 49.9219 5.99907 49.5806 5.56777C49.2393 5.13647 48.7433 4.85517 48.198 4.78359L48.197 4.78459ZM113.98 10.2686C112.834 10.2686 112.387 9.79959 112.387 8.59759V4.82759H111.456V3.96759H112.387V2.45959H113.433V3.96759H114.647V4.82759H113.433V8.54259C113.433 9.11559 113.672 9.37159 114.209 9.37159C114.315 9.37159 114.558 9.35359 114.642 9.34159V10.2186C114.423 10.2551 114.202 10.2716 113.98 10.2676V10.2686ZM117.269 10.2206H116.226V1.54559H117.272V4.96559H117.296C117.484 4.60858 117.771 4.3139 118.123 4.11751C118.476 3.92112 118.878 3.8315 119.28 3.85959C119.584 3.84339 119.887 3.8933 120.169 4.00588C120.452 4.11846 120.706 4.29101 120.916 4.51161C121.125 4.73222 121.284 4.99561 121.381 5.2836C121.479 5.57158 121.512 5.87729 121.48 6.17959V10.2186H120.434V6.37559C120.465 6.16927 120.449 5.95857 120.388 5.75921C120.326 5.55985 120.22 5.377 120.078 5.2243C119.936 5.0716 119.761 4.95302 119.567 4.87739C119.372 4.80177 119.163 4.77107 118.955 4.78759C118.722 4.77862 118.491 4.81957 118.275 4.9077C118.06 4.99582 117.866 5.12906 117.706 5.29847C117.546 5.46787 117.425 5.6695 117.35 5.88979C117.274 6.11008 117.247 6.34393 117.27 6.57559V10.2186L117.269 10.2206ZM103.269 10.2206H102.223V3.96759H103.208V4.96759H103.231C103.421 4.61281 103.709 4.32005 104.061 4.12401C104.413 3.92798 104.813 3.83691 105.215 3.86159C105.516 3.84321 105.817 3.89126 106.097 4.00233C106.377 4.1134 106.63 4.28476 106.836 4.50427C107.043 4.72377 107.198 4.98604 107.292 5.27246C107.386 5.55888 107.416 5.86243 107.379 6.16159V10.2186H106.333V6.34859C106.333 5.32559 105.833 4.78559 104.897 4.78559C104.67 4.7786 104.444 4.82029 104.235 4.90785C104.026 4.9954 103.838 5.12678 103.683 5.29316C103.529 5.45953 103.412 5.65704 103.34 5.87238C103.269 6.08773 103.244 6.31591 103.268 6.54159V10.2186L103.269 10.2206ZM62.813 10.2206H61.767V3.96659H62.753V4.96659H62.776C62.9658 4.6114 63.2538 4.31829 63.6055 4.12219C63.9573 3.9261 64.358 3.83529 64.76 3.86059C65.0608 3.84239 65.3619 3.89056 65.642 4.00169C65.9221 4.11282 66.1743 4.28419 66.3808 4.50365C66.5873 4.72312 66.743 4.98531 66.8368 5.27165C66.9307 5.55799 66.9605 5.86147 66.924 6.16059V10.2176H65.874V6.34759C65.874 5.32459 65.374 4.78459 64.437 4.78459C64.2102 4.77762 63.9846 4.81929 63.7753 4.90678C63.566 4.99428 63.3779 5.12557 63.2236 5.29183C63.0693 5.45809 62.9523 5.65547 62.8806 5.87069C62.8089 6.08592 62.7842 6.31399 62.808 6.53959V10.2186L62.813 10.2206ZM54.851 10.2206H53.784L52.034 3.96959H53.074L54.326 9.05159H54.35L55.762 3.96659H56.772L58.19 9.05159H58.214L59.464 3.96659H60.498L58.755 10.2186H57.691L56.278 5.37559H56.255L54.848 10.2186L54.851 10.2206ZM39.922 10.2206H37.004V1.54359H39.918C40.471 1.51691 41.0236 1.60465 41.5412 1.80133C42.0588 1.998 42.5302 2.29937 42.926 2.68659C43.6831 3.57128 44.0722 4.71264 44.013 5.87559C44.0772 7.04119 43.6909 8.18688 42.934 9.07559C42.5377 9.46401 42.0651 9.76603 41.5462 9.96259C41.0272 10.1592 40.4732 10.246 39.919 10.2176L39.922 10.2206ZM38.089 2.52059V9.24359H39.851C41.824 9.24359 42.91 8.05259 42.91 5.89059C42.91 3.72859 41.824 2.51859 39.851 2.51859L38.089 2.52059ZM69.772 10.2206H68.716V1.54459H69.765V10.2136L69.772 10.2206ZM13.182 7.78959C13.0785 7.79078 12.975 7.78677 12.872 7.77759C12.7564 5.99144 13.3549 4.2325 14.536 2.88759C15.7325 1.52526 17.3986 0.664008 19.202 0.475586C19.3478 2.31543 18.7654 4.13897 17.58 5.55359C17.0451 6.21431 16.377 6.75492 15.6192 7.14019C14.8614 7.52545 14.031 7.74673 13.182 7.78959Z" fill="white"/>
</svg>
