<svg width="119" height="99" viewBox="0 0 119 99" fill="none" xmlns="http://www.w3.org/2000/svg">
<circle cx="49.1635" cy="49.1635" r="49.1635" fill="#2253FF"/>
<path d="M116.576 59.3156L116.559 67.4116C116.543 70.3756 114.595 73.3396 110.699 75.6091C102.857 80.1652 90.1037 80.1652 82.2279 75.6091C78.2646 73.3226 76.283 70.3078 76.283 67.3099L76.2999 59.214C76.283 62.2119 78.2815 65.2267 82.2448 67.5132C90.1375 72.0693 102.891 72.0693 110.716 67.5132C114.629 65.2436 116.576 62.2796 116.576 59.3156Z" fill="#D4DDFC"/>
<path d="M96.4892 79.8436C91.171 79.8436 85.8697 78.675 81.8047 76.3377C77.689 73.9665 75.4194 70.7484 75.4364 67.2932L75.4533 59.1973C75.4533 58.723 75.8259 58.3504 76.3002 58.3504C76.7744 58.3504 77.147 58.74 77.147 59.1973V59.2142C77.147 62.0258 79.1117 64.7188 82.6685 66.7682C90.3072 71.1718 102.705 71.1888 110.293 66.7682C113.782 64.7357 115.713 62.0935 115.73 59.2989C115.73 58.8246 116.069 58.452 116.577 58.452C117.051 58.452 117.424 58.8416 117.424 59.2989L117.407 67.3948C117.39 70.7992 115.171 73.9664 111.14 76.3207C107.109 78.675 101.791 79.8436 96.4892 79.8436ZM77.147 64.1937L77.1301 67.3102C77.1301 70.1387 79.0779 72.8147 82.6516 74.8811C90.2902 79.3017 102.688 79.3017 110.276 74.8811C113.765 72.8486 115.696 70.2064 115.713 67.4118L115.73 64.2953C114.663 65.7689 113.138 67.1069 111.157 68.2417C103.095 72.9163 89.9346 72.9333 81.8386 68.2417C79.7892 67.073 78.2141 65.7011 77.147 64.1937Z" fill="#0C5AE5"/>
<path d="M110.633 51.0167C118.525 55.5728 118.559 62.9574 110.717 67.5135C102.875 72.0695 90.1217 72.0695 82.2459 67.5135C74.3532 62.9574 74.3193 55.5728 82.1612 51.0167C90.0031 46.4606 102.757 46.4606 110.633 51.0167Z" fill="white"/>
<path d="M96.5077 71.7477C91.1894 71.7477 85.8881 70.5791 81.8232 68.2417C77.7244 65.8705 75.4548 62.6694 75.4548 59.2312C75.4548 55.8099 77.6736 52.6257 81.7216 50.2714C89.7837 45.5968 102.944 45.5798 111.057 50.2714C115.156 52.6426 117.425 55.8438 117.425 59.282C117.425 62.7033 115.206 65.8875 111.158 68.2417C107.127 70.5791 101.826 71.7477 96.5077 71.7477ZM96.3891 48.4422C91.3927 48.4422 86.3962 49.5431 82.5854 51.745C79.0794 53.7774 77.1485 56.4366 77.1485 59.2312C77.1485 62.0427 79.1133 64.7188 82.6701 66.7852C90.3087 71.1888 102.707 71.2057 110.295 66.7852C113.801 64.7527 115.731 62.0936 115.731 59.2989C115.731 56.4874 113.767 53.8113 110.21 51.7619C106.399 49.5431 101.386 48.4422 96.3891 48.4422Z" fill="#0C5AE5"/>
<path d="M110.633 40.3805C118.525 44.9366 118.559 52.3212 110.717 56.8773C102.875 61.4334 90.1217 61.4334 82.2459 56.8773C74.3532 52.3212 74.3193 44.9366 82.1612 40.3805C90.0031 35.8244 102.757 35.8244 110.633 40.3805Z" fill="white"/>
<path d="M96.5077 61.1113C91.2064 61.1113 85.8881 59.9427 81.8232 57.6053C77.7244 55.2341 75.4548 52.033 75.4548 48.5948C75.4548 45.1735 77.6736 41.9893 81.7216 39.635C89.7837 34.9434 102.944 34.9434 111.057 39.635C115.156 42.0062 117.425 45.2073 117.425 48.6456C117.425 52.0669 115.206 55.2511 111.141 57.6053C107.127 59.9427 101.826 61.1113 96.5077 61.1113ZM96.3891 37.8058C91.3927 37.8058 86.3962 38.9067 82.5854 41.1255C79.0794 43.158 77.1485 45.8171 77.1485 48.6117C77.1485 51.4233 79.1133 54.0993 82.6701 56.1487C90.3087 60.5693 102.707 60.5693 110.295 56.1487C113.801 54.1163 115.731 51.4572 115.731 48.6625C115.731 45.851 113.767 43.1749 110.21 41.1255C106.399 38.9067 101.386 37.8058 96.3891 37.8058Z" fill="#0C5AE5"/>
<path d="M116.576 48.6791L116.559 56.775C116.543 59.739 114.595 62.703 110.699 64.9726C102.857 69.5287 90.1037 69.5287 82.2279 64.9726C78.2646 62.6861 76.283 59.6713 76.283 56.6734L76.2999 48.5775C76.283 51.5753 78.2815 54.5901 82.2448 56.8766C90.1375 61.4327 102.891 61.4327 110.716 56.8766C114.629 54.6071 116.576 51.6431 116.576 48.6791Z" fill="#D4DDFC"/>
<path d="M96.4892 69.207C91.171 69.207 85.8697 68.0384 81.8047 65.7011C77.689 63.3299 75.4194 60.1118 75.4364 56.6566L75.4533 48.5607C75.4533 48.0864 75.8259 47.7138 76.3002 47.7138C76.7744 47.7138 77.147 48.1034 77.147 48.5607V48.5776C77.147 51.3892 79.1117 54.0822 82.6685 56.1316C90.3072 60.5522 102.705 60.5522 110.293 56.1316C113.782 54.0991 115.713 51.4569 115.73 48.6623C115.73 48.188 116.102 47.8154 116.577 47.8154C117.051 47.8154 117.424 48.205 117.424 48.6623L117.407 56.7582C117.39 60.1626 115.171 63.3299 111.14 65.6841C107.109 68.0384 101.791 69.207 96.4892 69.207ZM77.147 53.5571L77.1301 56.6736C77.1301 59.5021 79.0779 62.1781 82.6516 64.2445C90.2902 68.6481 102.688 68.6651 110.276 64.2445C113.765 62.212 115.696 59.5698 115.713 56.7752L115.73 53.6587C114.663 55.1323 113.138 56.4703 111.157 57.6051C103.095 62.2967 89.9515 62.2967 81.8386 57.6051C79.7892 56.4364 78.2141 55.0645 77.147 53.5571Z" fill="#0C5AE5"/>
<path d="M110.633 29.7431C118.525 34.2992 118.559 41.6838 110.717 46.2399C102.875 50.796 90.1217 50.796 82.2459 46.2399C74.3532 41.6838 74.3193 34.2992 82.1612 29.7431C90.0031 25.187 102.757 25.187 110.633 29.7431Z" fill="white"/>
<path d="M96.5077 50.4914C91.2064 50.4914 85.8881 49.3228 81.8232 46.9855C77.7244 44.6143 75.4548 41.4131 75.4548 37.9749C75.4548 34.5536 77.6736 31.3694 81.7216 29.0152C89.7837 24.3405 102.944 24.3236 111.057 29.0152C115.156 31.3864 117.425 34.5875 117.425 38.0257C117.425 41.447 115.206 44.6312 111.141 46.9855C107.127 49.3058 101.826 50.4914 96.5077 50.4914ZM96.3891 27.169C91.3927 27.169 86.3962 28.2699 82.5854 30.4887C79.0794 32.5211 77.1485 35.1803 77.1485 37.9749C77.1485 40.7865 79.1133 43.4625 82.6701 45.5119C90.3087 49.9325 102.707 49.9325 110.295 45.5119C113.801 43.4795 115.731 40.8203 115.731 38.0257C115.731 35.2141 113.767 32.5381 110.21 30.4887C106.399 28.2699 101.386 27.169 96.3891 27.169Z" fill="#0C5AE5"/>
<path d="M116.576 38.0427L116.559 46.1387C116.543 49.1027 114.595 52.0667 110.699 54.3363C102.857 58.8923 90.1037 58.8923 82.2279 54.3363C78.2646 52.0497 76.283 49.0349 76.283 46.0371L76.2999 37.9411C76.283 40.939 78.2815 43.9538 82.2448 46.2403C90.1375 50.7964 102.891 50.7964 110.716 46.2403C114.629 43.9707 116.576 41.0067 116.576 38.0427Z" fill="#D4DDFC"/>
<path d="M96.4892 58.5705C91.171 58.5705 85.8697 57.4018 81.8047 55.0645C77.689 52.6933 75.4194 49.4753 75.4364 46.0201L75.4533 37.9241C75.4533 37.4499 75.8259 37.0773 76.3002 37.0773C76.7744 37.0773 77.147 37.4668 77.147 37.9241V37.9411C77.147 40.7526 79.1117 43.4456 82.6685 45.495C90.3072 49.9156 102.705 49.9156 110.293 45.495C113.782 43.4626 115.713 40.8204 115.73 38.0257C115.73 37.5515 116.102 37.1789 116.577 37.1789C117 37.162 117.424 37.5515 117.424 38.0257L117.407 46.1217C117.39 49.5261 115.171 52.6933 111.14 55.0476C107.092 57.4018 101.791 58.5705 96.4892 58.5705ZM77.147 42.9206L77.1301 46.0201C77.1301 48.8486 79.0779 51.5247 82.6516 53.591C90.2902 57.9946 102.688 57.9946 110.276 53.591C113.765 51.5585 115.696 48.9163 115.713 46.1386L115.73 43.0222C114.663 44.4957 113.138 45.8338 111.157 46.9686C103.095 51.6432 89.9515 51.6602 81.8386 46.9686C79.7892 45.7999 78.2141 44.428 77.147 42.9206Z" fill="#0C5AE5"/>
<path d="M110.633 19.1071C118.525 23.6632 118.559 31.0478 110.717 35.6039C102.875 40.16 90.1217 40.16 82.2459 35.6039C74.3532 31.0478 74.3193 23.6632 82.1612 19.1071C90.0031 14.551 102.757 14.551 110.633 19.1071Z" fill="white"/>
<path d="M96.5077 39.8552C91.1894 39.8552 85.8881 38.6865 81.8232 36.3492C77.7244 33.978 75.4548 30.7769 75.4548 27.3386C75.4548 23.9173 77.6736 20.7501 81.7216 18.3958C89.7837 13.7042 102.944 13.7042 111.057 18.3958C115.156 20.767 117.425 23.9681 117.425 27.4064C117.425 30.8277 115.206 34.0119 111.158 36.3661C107.127 38.6865 101.826 39.8552 96.5077 39.8552ZM96.3891 16.5327C91.3927 16.5327 86.3962 17.6337 82.5854 19.8524C79.0794 21.8849 77.1485 24.544 77.1485 27.3386C77.1485 30.1502 79.1133 32.8263 82.6701 34.8757C90.3087 39.2963 102.707 39.2963 110.295 34.8757C113.801 32.8432 115.731 30.1841 115.731 27.3894C115.731 24.5779 113.767 21.9018 110.21 19.8524C106.399 17.6337 101.386 16.5327 96.3891 16.5327Z" fill="#0C5AE5"/>
<path d="M116.576 27.4062L116.559 35.5021C116.543 38.4661 114.595 41.4301 110.699 43.6997C102.857 48.2558 90.1037 48.2558 82.2279 43.6997C78.2646 41.4132 76.283 38.3984 76.283 35.4005L76.2999 27.3046C76.283 30.3024 78.2815 33.3173 82.2448 35.6038C90.1375 40.1599 102.891 40.1599 110.716 35.6038C114.629 33.3342 116.576 30.3871 116.576 27.4062Z" fill="#D4DDFC"/>
<path d="M96.4892 47.934C91.171 47.934 85.8697 46.7653 81.8047 44.428C77.689 42.0568 75.4194 38.8387 75.4364 35.3835L75.4533 27.2876C75.4533 26.8134 75.8259 26.4407 76.3002 26.4407C76.7744 26.4407 77.147 26.8303 77.147 27.2876V27.3045C77.147 30.1161 79.1117 32.8091 82.6685 34.8585C90.3072 39.2791 102.705 39.2791 110.293 34.8585C113.782 32.826 115.713 30.1838 115.73 27.3892C115.73 26.915 116.102 26.5424 116.577 26.5424C117.051 26.5424 117.424 26.9319 117.424 27.3892L117.407 35.4852C117.39 38.8895 115.171 42.0568 111.14 44.411C107.109 46.7653 101.791 47.934 96.4892 47.934ZM77.147 32.2841L77.1301 35.4005C77.1301 38.229 79.0779 40.9051 82.6516 42.9714C90.2902 47.392 102.688 47.375 110.276 42.9714C113.765 40.9389 115.696 38.2967 115.713 35.519L115.73 32.4026C114.663 33.8761 113.138 35.2142 111.157 36.349C103.095 41.0406 89.9346 41.0406 81.8386 36.349C79.7892 35.1634 78.2141 33.7915 77.147 32.2841Z" fill="#0C5AE5"/>
<path d="M106.831 7.55428C114.723 12.1104 114.757 19.495 106.915 24.0511C99.0733 28.6071 86.3196 28.6071 78.4439 24.0511C70.5681 19.495 70.5173 12.1104 78.3422 7.55428C86.1841 2.99818 98.9378 2.99818 106.831 7.55428Z" fill="white"/>
<path d="M92.7055 28.2853C87.4041 28.2853 82.0859 27.1167 78.021 24.7793C73.9222 22.4081 71.6526 19.207 71.6526 15.7688C71.6526 12.3475 73.8714 9.1633 77.9193 6.80903C85.9814 2.13438 99.1416 2.11745 107.254 6.80903C111.353 9.18023 113.623 12.3814 113.623 15.8196C113.623 19.2409 111.404 22.4251 107.339 24.7793C103.308 27.1167 98.0068 28.2853 92.7055 28.2853ZM92.57 4.97982C87.5735 4.97982 82.577 6.08074 78.7662 8.28257C75.2602 10.315 73.3294 12.9742 73.3294 15.7688C73.3294 18.5803 75.2941 21.2564 78.8509 23.3058C86.4895 27.7264 98.8875 27.7264 106.475 23.3058C109.981 21.2734 111.912 18.6142 111.912 15.8196C111.912 13.008 109.947 10.332 106.391 8.28257C102.58 6.08074 97.5664 4.97982 92.57 4.97982Z" fill="#0C5AE5"/>
<path d="M112.776 15.8533L112.759 23.9492C112.759 26.9132 110.794 29.8772 106.898 32.1468C99.0566 36.7029 86.3029 36.7029 78.4271 32.1468C74.4638 29.8603 72.4822 26.8455 72.4822 23.8476L72.4991 15.7516C72.4991 18.7495 74.4808 21.7643 78.4441 24.0508C86.3368 28.6069 99.0904 28.6069 106.915 24.0508C110.811 21.7813 112.759 18.8173 112.776 15.8533Z" fill="#D4DDFC"/>
<path d="M92.6711 36.3814C87.3529 36.3814 82.0515 35.2128 77.9866 32.8754C73.8709 30.5042 71.6013 27.2862 71.6183 23.831L71.6352 15.735C71.6352 15.2608 72.0078 14.8882 72.4821 14.8882C72.9563 14.8882 73.3289 15.2777 73.3289 15.735V15.752C73.3289 18.5635 75.2936 21.2565 78.8504 23.3059C86.4891 27.7265 98.8871 27.7265 106.475 23.3059C109.964 21.2735 111.895 18.6313 111.912 15.8367C111.912 15.3624 112.284 14.9898 112.759 14.9898C113.233 14.9898 113.605 15.3794 113.605 15.8367L113.588 23.9326C113.572 27.337 111.353 30.5042 107.322 32.8585C103.291 35.2128 97.9894 36.3814 92.6711 36.3814ZM73.3289 20.7146L73.312 23.831C73.312 26.6595 75.2597 29.3356 78.8335 31.4019C86.4721 35.8056 98.8701 35.8225 106.458 31.4019C109.947 29.3694 111.878 26.7272 111.895 23.9326L111.912 20.8162C110.845 22.2897 109.32 23.6277 107.339 24.7625C99.2766 29.4372 86.1334 29.4541 78.0205 24.7625C75.988 23.6108 74.4129 22.222 73.3289 20.7146Z" fill="#0C5AE5"/>
<path d="M75.8256 61.0262C83.7184 65.5823 83.7522 72.9669 75.9103 77.523C68.0684 82.0791 55.3148 82.0791 47.439 77.523C39.5463 72.9669 39.5124 65.5823 47.3543 61.0262C55.1962 56.4701 67.9329 56.4701 75.8256 61.0262Z" fill="white"/>
<path d="M61.7011 81.7573C56.3828 81.7573 51.0815 80.5886 47.0166 78.2513C42.9178 75.8801 40.6482 72.679 40.6482 69.2408C40.6482 65.8195 42.867 62.6353 46.9149 60.281C54.977 55.5894 68.1372 55.5894 76.2501 60.281C80.3489 62.6522 82.6184 65.8533 82.6184 69.2916C82.6184 72.7129 80.3997 75.8971 76.3517 78.2513C72.3207 80.5886 67.0193 81.7573 61.7011 81.7573ZM61.5825 58.4518C56.586 58.4518 51.5896 59.5527 47.7787 61.7545C44.2727 63.787 42.3419 66.4461 42.3419 69.2408C42.3419 72.0523 44.3066 74.7284 47.8634 76.7778C55.5021 81.1815 67.9001 81.1984 75.4879 76.7778C78.9939 74.7453 80.9247 72.0862 80.9247 69.2916C80.9247 66.48 78.96 63.8039 75.4032 61.7545C71.5924 59.5527 66.579 58.4518 61.5825 58.4518Z" fill="#0C5AE5"/>
<path d="M81.7708 69.3251L81.7538 77.4211C81.7538 80.3851 79.7891 83.3491 75.8936 85.6187C68.0517 90.1748 55.298 90.1748 47.4222 85.6187C43.4589 83.3322 41.4773 80.3173 41.4773 77.3195L41.4942 69.2235C41.4773 72.2214 43.4759 75.2362 47.4392 77.5227C55.3319 82.0788 68.0855 82.0788 75.9105 77.5227C79.823 75.2531 81.7708 72.2891 81.7708 69.3251Z" fill="#D4DDFC"/>
<path d="M61.6833 89.8531C56.382 89.8531 51.0637 88.6844 46.9988 86.3471C42.8831 83.9759 40.6135 80.7579 40.6305 77.3027L40.6474 69.2067C40.6474 68.7325 41.02 68.3599 41.4943 68.3599C41.9685 68.3599 42.3411 68.7494 42.3411 69.2067C42.3411 72.0352 44.2889 74.7113 47.8626 76.7776C55.5013 81.1813 67.8993 81.1982 75.4871 76.7776C78.9762 74.7452 80.907 72.103 80.9239 69.3253C80.9239 68.851 81.2965 68.4784 81.7708 68.4784C82.2281 68.5462 82.6176 68.868 82.6176 69.3253L82.6007 77.4212C82.5838 80.8256 80.365 83.9928 76.334 86.3471C72.286 88.6844 66.9847 89.8531 61.6833 89.8531ZM42.3411 74.2032L42.3242 77.3027C42.3242 80.1312 44.272 82.8072 47.8457 84.8736C55.4843 89.2942 67.8823 89.2942 75.4702 84.8736C78.9592 82.8411 80.8901 80.1989 80.907 77.4212L80.9239 74.3048C79.8569 75.7783 78.3325 77.1164 76.3509 78.2512C68.2888 82.9427 55.1287 82.9427 47.0327 78.2512C44.9833 77.0825 43.4082 75.7106 42.3411 74.2032Z" fill="#0C5AE5"/>
<path d="M75.8256 50.3898C83.7184 54.9459 83.7522 62.3305 75.9103 66.8866C68.0684 71.4427 55.3148 71.4427 47.439 66.8866C39.5463 62.3305 39.5124 54.9459 47.3543 50.3898C55.1962 45.8337 67.9329 45.8337 75.8256 50.3898Z" fill="white"/>
<path d="M61.7011 71.1378C56.3828 71.1378 51.0815 69.9691 47.0166 67.6318C42.9178 65.2606 40.6482 62.0595 40.6482 58.6213C40.6482 55.2 42.867 52.0158 46.9149 49.6615C54.977 44.9869 68.1372 44.9699 76.2501 49.6615C80.3489 52.0327 82.6184 55.2338 82.6184 58.6721C82.6184 62.0934 80.3997 65.2776 76.3517 67.6318C72.3207 69.9522 67.0193 71.1378 61.7011 71.1378ZM61.5825 47.8154C56.586 47.8154 51.5896 48.9163 47.7787 51.135C44.2727 53.1675 42.3419 55.8266 42.3419 58.6213C42.3419 61.4328 44.3066 64.1089 47.8634 66.1752C55.5021 70.5789 67.9001 70.5958 75.4879 66.1752C78.9939 64.1428 80.9247 61.4836 80.9247 58.689C80.9247 55.8774 78.96 53.2014 75.4032 51.152C71.5924 48.9163 66.579 47.8154 61.5825 47.8154Z" fill="#0C5AE5"/>
<path d="M81.7708 58.6888L81.7538 66.7848C81.7538 69.7488 79.7891 72.7128 75.8936 74.9824C68.0517 79.5385 55.298 79.5385 47.4222 74.9824C43.4589 72.6959 41.4773 69.681 41.4773 66.6832L41.4942 58.5872C41.4773 61.5851 43.4759 64.5999 47.4392 66.8864C55.3319 71.4425 68.0855 71.4425 75.9105 66.8864C79.823 64.6168 81.7708 61.6528 81.7708 58.6888Z" fill="#D4DDFC"/>
<path d="M61.6833 79.2166C56.382 79.2166 51.0637 78.0479 46.9988 75.7106C42.8831 73.3394 40.6135 70.1213 40.6305 66.6661L40.6474 58.5702C40.6474 58.0959 41.02 57.7233 41.4943 57.7233C41.9685 57.7233 42.3411 58.1129 42.3411 58.5702C42.3411 61.3987 44.2889 64.0748 47.8626 66.1411C55.5013 70.5447 67.8993 70.5617 75.4871 66.1411C78.9762 64.1086 80.907 61.4664 80.9239 58.6718C80.9239 58.1976 81.2965 57.825 81.7708 57.825C82.245 57.825 82.6176 58.2145 82.6176 58.6718L82.6007 66.7678C82.5838 70.1721 80.365 73.3394 76.334 75.6936C72.286 78.0479 66.9847 79.2166 61.6833 79.2166ZM42.3411 63.5666L42.3242 66.6661C42.3242 69.4946 44.272 72.1707 47.8457 74.237C55.4843 78.6576 67.8823 78.6576 75.4702 74.237C78.9592 72.2046 80.8901 69.5624 80.907 66.7847L80.9239 63.6683C79.8569 65.1418 78.3325 66.4798 76.3509 67.6146C68.2888 72.2893 55.1287 72.3062 47.0327 67.6146C44.9833 66.446 43.4082 65.074 42.3411 63.5666Z" fill="#0C5AE5"/>
<path d="M75.8256 39.6853C83.7184 44.2414 83.7522 51.626 75.9103 56.1821C68.0684 60.7382 55.3148 60.7382 47.439 56.1821C39.5463 51.626 39.5124 44.2414 47.3543 39.6853C55.1962 35.1292 67.9329 35.1292 75.8256 39.6853Z" fill="white"/>
<path d="M61.7011 60.4334C56.3997 60.4334 51.0815 59.2647 47.0166 56.9274C42.9178 54.5562 40.6482 51.3551 40.6482 47.9169C40.6482 44.4955 42.867 41.3114 46.9149 38.9571C54.977 34.2655 68.1372 34.2655 76.2501 38.9571C80.3489 41.3283 82.6184 44.5294 82.6184 47.9677C82.6184 51.389 80.3997 54.5731 76.3517 56.9274C72.3207 59.2647 67.0193 60.4334 61.7011 60.4334ZM61.5825 37.111C56.586 37.111 51.5896 38.2119 47.7787 40.4137C44.2727 42.4462 42.3419 45.1053 42.3419 47.8999C42.3419 50.7115 44.3066 53.3876 47.8634 55.4369C55.5021 59.8406 67.9001 59.8406 75.4879 55.4369C78.9939 53.4045 80.9247 50.7454 80.9247 47.9507C80.9247 45.1392 78.96 42.4631 75.4032 40.4137C71.5924 38.2119 66.579 37.111 61.5825 37.111Z" fill="#0C5AE5"/>
<path d="M81.7708 48.0012L81.7538 56.0972C81.7538 59.0612 79.7891 62.0252 75.8936 64.2948C68.0517 68.8508 55.298 68.8508 47.4222 64.2948C43.4589 62.0082 41.4773 58.9934 41.4773 55.9955L41.4942 47.8996C41.4773 50.8975 43.4759 53.9123 47.4392 56.1988C55.3319 60.7549 68.0855 60.7549 75.9105 56.1988C79.823 53.9292 81.7708 50.9652 81.7708 48.0012Z" fill="#D4DDFC"/>
<path d="M61.6833 68.5291C56.3651 68.5291 51.0637 67.3605 46.9988 65.0232C42.8831 62.652 40.6135 59.4339 40.6305 55.9787L40.6474 47.8828C40.6474 47.4085 41.02 47.0359 41.4943 47.0359C41.9685 47.019 42.3411 47.4255 42.3411 47.8828C42.3411 50.7113 44.2889 53.3873 47.8626 55.4537C55.5013 59.8573 67.8993 59.8573 75.4871 55.4537C78.9762 53.4212 80.907 50.779 80.9239 48.0013C80.9239 47.5271 81.2965 47.1545 81.7708 47.1545C82.245 47.1545 82.6176 47.544 82.6176 48.0013L82.6007 56.0973C82.5838 59.5016 80.365 62.6689 76.334 65.0232C72.286 67.3605 66.9847 68.5291 61.6833 68.5291ZM42.3411 52.8623L42.3242 55.9787C42.3242 58.8072 44.272 61.4833 47.8457 63.5496C55.4843 67.9702 67.8823 67.9702 75.4702 63.5496C78.9592 61.5172 80.8901 58.875 80.907 56.0803L80.9239 52.9639C79.8569 54.4374 78.3325 55.7755 76.3509 56.9103C68.2888 61.6019 55.1456 61.6019 47.0327 56.9103C44.9833 55.7416 43.4082 54.3697 42.3411 52.8623Z" fill="#0C5AE5"/>
<path d="M75.8256 28.998C83.7184 33.5541 83.7522 40.9387 75.9103 45.4948C68.0684 50.0509 55.3148 50.0509 47.439 45.4948C39.5463 40.9387 39.5124 33.5541 47.3543 28.998C55.1962 24.4419 67.9329 24.4419 75.8256 28.998Z" fill="white"/>
<path d="M61.7011 49.7292C56.3828 49.7292 51.0815 48.5606 47.0166 46.2232C42.9178 43.852 40.6482 40.6509 40.6482 37.2127C40.6482 33.7914 42.867 30.6072 46.9149 28.2529C54.977 23.5783 68.1372 23.5614 76.2501 28.2529C80.3489 30.6241 82.6184 33.8253 82.6184 37.2635C82.6184 40.6848 80.3997 43.869 76.3517 46.2232C72.3207 48.5606 67.0193 49.7292 61.7011 49.7292ZM61.5825 26.4237C56.586 26.4237 51.5896 27.5246 47.7787 29.7265C44.2727 31.7589 42.3419 34.4181 42.3419 37.2127C42.3419 40.0243 44.3066 42.7003 47.8634 44.7667C55.5021 49.1703 67.9001 49.1873 75.4879 44.7667C78.9939 42.7342 80.9247 40.0751 80.9247 37.2804C80.9247 34.4689 78.96 31.7928 75.4032 29.7434C71.5924 27.5246 66.579 26.4237 61.5825 26.4237Z" fill="#0C5AE5"/>
<path d="M81.7708 37.2972L81.7538 45.3931C81.7538 48.3571 79.7891 51.3211 75.8936 53.5907C68.0517 58.1468 55.298 58.1468 47.4222 53.5907C43.4589 51.3042 41.4773 48.2894 41.4773 45.2915L41.4942 37.1956C41.4773 40.1934 43.4759 43.2082 47.4392 45.4948C55.3319 50.0508 68.0855 50.0508 75.9105 45.4948C79.823 43.2252 81.7708 40.2612 81.7708 37.2972Z" fill="#D4DDFC"/>
<path d="M61.6833 57.8251C56.382 57.8251 51.0637 56.6565 46.9988 54.3192C42.8831 51.948 40.6135 48.7299 40.6305 45.2747L40.6474 37.1788C40.6474 36.7045 41.02 36.3319 41.4943 36.3319C41.9685 36.3319 42.3411 36.7215 42.3411 37.1788C42.3411 40.0073 44.2889 42.6833 47.8626 44.7497C55.5013 49.1533 67.8993 49.1703 75.4871 44.7497C78.9762 42.7172 80.907 40.075 80.9239 37.2804C80.9239 36.8061 81.2965 36.4335 81.7708 36.4335C82.245 36.4335 82.6176 36.8231 82.6176 37.2804L82.6007 45.3763C82.5838 48.7807 80.365 51.948 76.334 54.3022C72.286 56.6565 66.9847 57.8251 61.6833 57.8251ZM42.3411 42.1752L42.3242 45.2747C42.3242 48.1032 44.272 50.7793 47.8457 52.8456C55.4843 57.2662 67.8823 57.2662 75.4702 52.8456C78.9592 50.8132 80.8901 48.171 80.907 45.3933L80.9239 42.2768C79.8569 43.7504 78.3325 45.0884 76.3509 46.2232C68.2888 50.8978 55.1287 50.9148 47.0327 46.2232C44.9833 45.0545 43.4082 43.6826 42.3411 42.1752Z" fill="#0C5AE5"/>
<path d="M87.3298 18.5672L92.7158 15.4339C94.6974 17.2462 94.5619 18.1099 93.2239 18.8891C91.7334 19.7528 89.3284 19.6682 87.3298 18.5672ZM93.0376 14.2483C91.1068 12.436 91.31 11.6061 92.6311 10.827C94.0369 10.014 96.425 10.0817 98.3728 11.1488L93.0376 14.2483ZM100.879 10.2003C100.625 10.0479 100.185 10.0479 99.931 10.2003L99.1858 10.6237C96.7468 9.26876 93.5118 9.1502 91.5471 10.3019C89.5994 11.4367 89.7349 12.7578 92.0383 14.8241L86.4829 18.0591C85.111 17.0937 84.5182 16.0436 84.4335 14.8241C84.4335 14.7564 84.3827 14.6548 84.2133 14.5531C83.9593 14.4007 83.485 14.4007 83.231 14.5531C83.0616 14.6548 83.0277 14.7733 83.0447 14.9088C83.231 16.3315 84.0101 17.5002 85.5683 18.5503L84.027 19.448C83.773 19.6004 83.773 19.8545 84.027 19.99C84.2811 20.1424 84.7215 20.1424 84.9755 19.99L86.4829 19.1092C89.0066 20.4642 92.2246 20.6336 94.2909 19.431C96.2048 18.3132 96.0524 16.9582 93.6981 14.875L99.1519 11.7077C100.067 12.3683 100.625 13.1474 100.829 14.1467C100.846 14.2991 100.93 14.3668 101.049 14.4346C101.32 14.587 101.777 14.604 102.048 14.4346C102.234 14.316 102.268 14.1975 102.218 14.0112C101.947 12.9611 101.388 12.0803 100.1 11.1996L100.879 10.7423C101.134 10.5899 101.134 10.3527 100.879 10.2003Z" fill="#0C5AE5"/>
<path d="M56.3137 39.8233L61.6997 36.6899C63.6813 38.5022 63.5458 39.366 62.2078 40.1451C60.7173 41.0089 58.3122 40.9242 56.3137 39.8233ZM62.0215 35.5044C60.1076 33.6921 60.2939 32.8452 61.615 32.083C63.0208 31.2701 65.4089 31.3378 67.3567 32.4049L62.0215 35.5044ZM69.8634 31.4394C69.6093 31.287 69.169 31.287 68.9149 31.4394L68.1697 31.8629C65.7307 30.5079 62.4957 30.3893 60.531 31.5411C58.5832 32.6758 58.7187 33.9969 61.0222 36.0633L55.4668 39.2983C54.0949 38.3329 53.5021 37.2828 53.4174 36.0633C53.4174 35.9955 53.3666 35.8939 53.1972 35.7923C52.9432 35.6398 52.4689 35.6398 52.2149 35.7923C52.0455 35.8939 52.0116 36.0125 52.0286 36.148C52.2149 37.5707 52.994 38.7393 54.5522 39.7894L53.0109 40.6871C52.7569 40.8396 52.7569 41.0936 53.0109 41.2291C53.265 41.3815 53.7053 41.3815 53.9594 41.2291L55.4668 40.3484C57.9904 41.7033 61.2085 41.8727 63.2748 40.6702C65.1887 39.5523 65.0363 38.1974 62.682 36.1141L68.1358 32.9468C69.0504 33.6074 69.6093 34.3865 69.8126 35.3858C69.8295 35.5382 69.9142 35.606 70.0328 35.6737C70.3037 35.8262 70.761 35.8431 71.032 35.6737C71.2184 35.5552 71.2522 35.4366 71.2014 35.2503C70.9304 34.2002 70.3715 33.3195 69.0843 32.4387L69.8634 31.9814C70.1174 31.8459 70.1174 31.5919 69.8634 31.4394Z" fill="#0C5AE5"/>
<path d="M111.498 66.9182C119.39 71.4743 119.424 78.8588 111.582 83.4149C103.74 87.971 90.9866 87.971 83.1109 83.4149C75.2182 78.8588 75.1843 71.4743 83.0262 66.9182C90.8681 62.379 103.605 62.3621 111.498 66.9182Z" fill="white"/>
<path d="M97.3717 87.6661C92.0704 87.6661 86.7521 86.4974 82.6872 84.1601C78.5884 81.7889 76.3188 78.5878 76.3188 75.1495C76.3188 71.7282 78.5376 68.544 82.5856 66.1898C90.6477 61.4982 103.808 61.4982 111.921 66.1898C116.02 68.561 118.289 71.7621 118.289 75.2003C118.289 78.6216 116.07 81.8058 112.022 84.1601C107.991 86.4974 102.69 87.6661 97.3717 87.6661ZM97.2532 64.3436C92.2567 64.3436 87.2602 65.4445 83.4494 67.6633C79.9434 69.6958 78.0126 72.3549 78.0126 75.1495C78.0126 77.9611 79.9773 80.6372 83.5341 82.6865C91.1727 87.1071 103.571 87.1071 111.159 82.6865C114.665 80.6541 116.595 77.995 116.595 75.2003C116.595 72.3888 114.631 69.7127 111.074 67.6633C107.263 65.4445 102.25 64.3436 97.2532 64.3436Z" fill="#0C5AE5"/>
<path d="M117.442 75.2342L117.425 83.3301C117.425 86.2941 115.461 89.2581 111.565 91.5277C103.723 96.0838 90.9694 96.0838 83.0936 91.5277C79.1303 89.2412 77.1487 86.2264 77.1487 83.2285L77.1656 75.1326C77.1656 78.1304 79.1473 81.1453 83.1106 83.4318C91.0033 87.9879 103.757 87.9879 111.582 83.4318C115.494 81.1622 117.442 78.1982 117.442 75.2342Z" fill="#D4DDFC"/>
<path d="M97.3552 95.7621C92.0369 95.7621 86.7356 94.5934 82.6707 92.2561C78.555 89.8849 76.2854 86.6668 76.3023 83.2117L76.3193 75.1157C76.3193 74.6415 76.6919 74.2689 77.1661 74.2689C77.6404 74.2689 78.013 74.6584 78.013 75.1157C78.013 77.9442 79.9608 80.6203 83.5345 82.6866C91.1732 87.1072 103.571 87.1072 111.159 82.6866C114.648 80.6542 116.579 78.012 116.596 75.2343C116.596 74.76 116.968 74.3027 117.443 74.3874C117.917 74.3874 118.29 74.777 118.29 75.2343L118.273 83.3302C118.256 86.7346 116.037 89.9018 112.006 92.2561C107.958 94.5934 102.657 95.7621 97.3552 95.7621ZM78.013 80.0952L77.9961 83.2117C77.9961 86.0402 79.9438 88.7162 83.5176 90.7826C91.1562 95.1862 103.554 95.2032 111.142 90.7826C114.631 88.7501 116.562 86.1079 116.579 83.3133L116.596 80.1969C115.529 81.6704 114.004 83.0084 112.023 84.1432C103.961 88.8348 90.8175 88.8348 82.7046 84.1432C80.6552 82.9745 79.08 81.6026 78.013 80.0952Z" fill="#0C5AE5"/>
<path d="M91.4441 78.2322L96.8301 75.0989C98.8118 76.9111 98.6763 77.7749 97.3383 78.554C95.8478 79.4178 93.4427 79.3331 91.4441 78.2322ZM97.1519 73.9133C95.2211 72.101 95.4074 71.2711 96.7455 70.492C98.1343 69.679 100.522 69.7467 102.47 70.8307L97.1519 73.9133ZM104.994 69.8653C104.74 69.7128 104.299 69.7128 104.062 69.8653L103.317 70.2887C100.861 68.9507 97.6431 68.8152 95.6615 69.9669C93.7137 71.1017 93.8661 72.4228 96.1696 74.5061L90.6142 77.7411C89.2423 76.7587 88.6495 75.7255 88.5648 74.5061C88.5818 74.4383 88.5309 74.3197 88.3616 74.2181C88.1075 74.0657 87.6333 74.0657 87.3792 74.2181C87.1929 74.3197 87.159 74.4383 87.176 74.5907C87.3623 76.0135 88.1245 77.1652 89.6996 78.2322L88.1583 79.1299C87.9043 79.2654 87.9043 79.5195 88.1753 79.6719C88.4293 79.8074 88.8528 79.8074 89.1068 79.6719L90.6312 78.7912C93.1548 80.1631 96.3728 80.3324 98.4392 79.1299C100.353 78.012 100.201 76.6401 97.8464 74.5569L103.3 71.3896C104.215 72.0502 104.757 72.8293 104.977 73.8286C104.994 73.981 105.079 74.0488 105.18 74.1165C105.468 74.2859 105.908 74.2859 106.179 74.1334C106.366 74.0149 106.4 73.8963 106.349 73.71C106.078 72.643 105.519 71.7792 104.215 70.8984L104.994 70.4411C105.248 70.2548 105.231 70.0008 104.994 69.8653Z" fill="#0C5AE5"/>
</svg>
