<svg width="99" height="102" viewBox="0 0 99 102" fill="none" xmlns="http://www.w3.org/2000/svg">
<circle cx="49.1635" cy="51.9806" r="49.1635" fill="#2253FF"/>
<g clip-path="url(#clip0)">
<path d="M61.1475 29.3233L61.2998 94.3644C61.2998 96.5264 62.0762 98.0489 63.2942 98.7645L58.4831 95.9631C57.2499 95.2475 56.4887 93.725 56.4887 91.563L56.3364 26.5371L61.1475 29.3233Z" fill="white"/>
<path d="M63.3097 99.5257C63.1727 99.5257 63.0509 99.4952 62.9291 99.4191L58.118 96.6177C56.5955 95.7346 55.7429 93.9381 55.7429 91.563L55.5754 26.537C55.5754 26.263 55.7125 26.0042 55.9561 25.8824C56.1997 25.7453 56.4889 25.7453 56.7173 25.8824L61.5284 28.6838C61.7568 28.8208 61.909 29.0644 61.909 29.3384L62.0613 94.3796C62.0613 96.1914 62.6398 97.5159 63.6904 98.1249C64.0558 98.3381 64.1776 98.7948 63.9644 99.1602C63.8274 99.3886 63.5686 99.5257 63.3097 99.5257ZM57.0979 27.8616L57.2502 91.5782C57.2502 93.39 57.8287 94.7146 58.8793 95.3236L60.7976 96.435C60.6301 95.8108 60.554 95.1256 60.554 94.3796L60.4018 29.78L57.0979 27.8616Z" fill="#0C5AE5"/>
<path d="M85.7061 1.70509C87.6244 0.608888 89.3449 0.502313 90.5933 1.23311L95.4044 4.03451C94.1559 3.30371 92.4355 3.41029 90.5172 4.50649L67.9842 17.4782L63.1731 14.692L85.7061 1.70509Z" fill="white"/>
<path d="M67.9997 18.2394C67.8627 18.2394 67.7409 18.209 67.6191 18.1329L62.808 15.3315C62.5644 15.2097 62.4121 14.9508 62.4121 14.692C62.4121 14.418 62.5644 14.1744 62.7927 14.0373L85.3257 1.06564C87.4115 -0.137133 89.4212 -0.304608 90.9742 0.593667L95.7853 3.39506C96.1507 3.60821 96.2725 4.06496 96.0593 4.43036C95.8462 4.79576 95.3742 4.91756 95.024 4.70441C93.9735 4.09541 92.5119 4.26289 90.8981 5.17639L68.3651 18.1633C68.2585 18.209 68.1215 18.2394 67.9997 18.2394ZM64.6959 14.692L67.9997 16.6104L90.152 3.85181C90.8219 3.45596 91.4918 3.18191 92.1313 3.01444L90.2129 1.90302C89.1472 1.29402 87.6856 1.46149 86.087 2.37499L64.6959 14.692Z" fill="#0C5AE5"/>
<path d="M61.1479 29.3384L61.285 86.3103L61.3002 94.3795C61.3154 98.7339 64.3909 100.485 68.1819 98.3076L90.7149 85.3359C94.5059 83.1435 97.5661 77.8452 97.5509 73.4908L97.5357 65.4064L97.4139 8.43445C97.3986 4.08011 94.3232 2.32923 90.5322 4.50641L67.9992 17.4781C64.2082 19.6705 61.1479 24.9688 61.1479 29.3384Z" fill="#D4DDFC"/>
<path d="M65.1217 99.9977C64.33 99.9977 63.5992 99.815 62.9446 99.4344C61.4068 98.5514 60.5542 96.7548 60.5542 94.3645L60.3868 29.3386C60.3715 24.7406 63.6145 19.1378 67.6186 16.8236L90.1516 3.85192C92.2374 2.64915 94.2319 2.48168 95.7849 3.36473C97.3226 4.24777 98.1752 6.04432 98.1752 8.43465L98.3274 73.4758C98.3427 78.0585 95.0997 83.6613 91.1108 85.9755L68.5778 98.9472C67.375 99.6476 66.1875 99.9977 65.1217 99.9977ZM61.9093 29.3233L62.0767 94.3645C62.0767 96.1763 62.6553 97.5161 63.7058 98.1098C64.7563 98.7188 66.2179 98.5514 67.8166 97.6226L90.3496 84.6509C93.9274 82.5803 96.8202 77.5713 96.8049 73.4758L96.6527 8.43465C96.6527 6.62287 96.0741 5.2983 95.0236 4.6893C93.9731 4.0803 92.5115 4.24777 90.9129 5.1765L68.3799 18.1482C64.802 20.2036 61.9093 25.2278 61.9093 29.3233Z" fill="#0C5AE5"/>
<path d="M66.5067 18.5285C66.4154 18.6046 66.324 18.6807 66.2327 18.7721C66.0956 18.8939 65.9434 19.0309 65.8064 19.1679C65.715 19.2593 65.6237 19.3506 65.5323 19.442C65.3953 19.579 65.2583 19.716 65.1365 19.8683C65.0603 19.9596 64.969 20.051 64.8929 20.1423C64.6949 20.3707 64.497 20.6143 64.3143 20.8579C64.2686 20.9036 64.2382 20.9645 64.1925 21.0102C63.9794 21.2994 63.7662 21.6192 63.5683 21.9237C63.5226 21.9998 63.4617 22.0911 63.416 22.1673C63.2638 22.4109 63.1268 22.6545 62.9897 22.8981C62.9288 23.0046 62.8832 23.096 62.8223 23.2026C62.67 23.4918 62.533 23.7811 62.396 24.0704C62.3807 24.1161 62.3503 24.1617 62.3198 24.2226C62.3046 24.2683 62.2894 24.314 62.2742 24.3597C62.1828 24.5728 62.0915 24.786 62.0153 24.9991C61.9849 25.0752 61.9544 25.1666 61.924 25.2427C61.8631 25.4254 61.787 25.6233 61.7413 25.806C61.7108 25.8822 61.6956 25.9583 61.6652 26.0344C61.589 26.2932 61.5129 26.5521 61.452 26.8109C61.452 26.8413 61.4368 26.8718 61.4368 26.887C61.3911 27.1154 61.3454 27.3438 61.2998 27.5721C61.2845 27.6483 61.2693 27.7244 61.2693 27.8005C61.2389 27.9832 61.2236 28.1659 61.2084 28.3638C61.2084 28.44 61.1932 28.5161 61.1932 28.5922C61.178 28.8358 61.1627 29.0946 61.1627 29.3382L56.3364 26.5368C56.3364 26.2932 56.3517 26.0344 56.3669 25.7908C56.3669 25.7147 56.3821 25.6386 56.3821 25.5624C56.3973 25.3797 56.4278 25.197 56.443 24.9991C56.4582 24.923 56.4582 24.8469 56.4735 24.7707C56.5191 24.5424 56.5496 24.314 56.6105 24.0856C56.6105 24.0552 56.6257 24.0247 56.6257 24.0095C56.6866 23.7507 56.7627 23.4918 56.8389 23.233C56.8541 23.1569 56.8845 23.0808 56.915 23.0046C56.9759 22.8219 57.0368 22.624 57.1129 22.4413C57.1434 22.3652 57.1738 22.2738 57.2043 22.1977C57.2804 21.9846 57.3717 21.7714 57.4631 21.5583C57.4783 21.5126 57.4935 21.4669 57.524 21.4212C57.524 21.406 57.5392 21.3908 57.5392 21.3908C57.5392 21.3451 57.5544 21.3147 57.5849 21.269C57.7067 20.9797 57.8589 20.6904 58.0112 20.4012C58.0568 20.2946 58.1177 20.2032 58.1786 20.0967C58.3157 19.8531 58.4527 19.6095 58.6049 19.3659C58.6506 19.2897 58.7115 19.1984 58.7572 19.1223C58.9551 18.8025 59.1683 18.498 59.3814 18.2088C59.4271 18.1631 59.4575 18.1022 59.5032 18.0565C59.6859 17.8129 59.8838 17.5693 60.0818 17.3409C60.1122 17.2953 60.1427 17.2496 60.1731 17.2039C60.2188 17.1582 60.2645 17.0973 60.3101 17.0517C60.4472 16.9146 60.569 16.7624 60.706 16.6254C60.7973 16.534 60.8887 16.4427 60.98 16.3513C61.1171 16.2143 61.2693 16.0925 61.4063 15.9555C61.4977 15.8793 61.589 15.788 61.6804 15.7119C61.8479 15.5748 62.0001 15.453 62.1676 15.3312C62.2589 15.2856 62.3503 15.2247 62.4264 15.1638C62.67 14.9963 62.9288 14.8288 63.1724 14.6766L67.9835 17.478C67.7247 17.6302 67.4811 17.7825 67.2375 17.9652C67.1614 18.0261 67.07 18.087 66.9939 18.1479C66.8417 18.2697 66.6742 18.3915 66.5067 18.5285Z" fill="white"/>
<path d="M61.1478 30.0843C61.0108 30.0843 60.889 30.0539 60.7672 29.9777L55.9561 27.1763C55.7125 27.0545 55.5754 26.7957 55.5754 26.5369C55.5754 26.2781 55.5907 26.004 55.6059 25.73L55.6211 25.5473C55.6363 25.3037 55.6668 25.1058 55.6972 24.8926L55.7277 24.649C55.7734 24.4054 55.819 24.1618 55.8647 23.9182C55.9408 23.568 56.017 23.294 56.0931 23.0199L56.1692 22.7916C56.2301 22.5936 56.291 22.3957 56.3671 22.1978L56.4585 21.939C56.5346 21.7258 56.626 21.4974 56.7173 21.2843C56.7173 21.2691 56.7782 21.132 56.7782 21.132C56.9761 20.6905 57.1284 20.386 57.2806 20.0815L57.4481 19.7618C57.5851 19.503 57.7374 19.2441 57.9049 18.9853L58.0723 18.7265C58.2703 18.4068 58.4986 18.087 58.727 17.7673L58.8488 17.5998C59.0467 17.341 59.2447 17.0974 59.4578 16.8538L59.5644 16.732C59.5644 16.732 59.7166 16.5798 59.7166 16.5645C59.8537 16.4123 59.9907 16.26 60.1429 16.123L60.4322 15.8337C60.5845 15.6815 60.7367 15.5445 60.889 15.4227L61.2087 15.1486C61.3762 15.0116 61.5589 14.8746 61.7263 14.7375L61.9852 14.5396C62.2592 14.3569 62.518 14.1742 62.7921 14.022C63.0357 13.8849 63.325 13.8849 63.5533 14.022L68.3644 16.8234C68.5928 16.9604 68.7451 17.204 68.7451 17.478C68.7451 17.7521 68.5928 17.9957 68.3644 18.1327C68.1208 18.2697 67.8925 18.422 67.6641 18.5742C67.6641 18.5742 67.4509 18.7417 67.4357 18.7417C67.2835 18.8483 67.1312 18.9701 66.979 19.0919L66.7963 19.2441C66.5831 19.4268 66.4613 19.5486 66.3243 19.6704L66.0807 19.9597C65.9437 20.0967 65.8219 20.2185 65.7001 20.3556L65.4717 20.6296C65.289 20.8428 65.1063 21.0711 64.9236 21.2995L64.8018 21.4518C64.5886 21.741 64.3907 22.0303 64.1928 22.3196L64.1014 22.4718C63.9035 22.7916 63.7665 23.0199 63.6295 23.2635L63.4772 23.5528C63.3402 23.8269 63.2032 24.1009 63.0814 24.375L63.0205 24.512C62.8834 24.8317 62.8073 25.0448 62.7312 25.2428L62.6703 25.4255C62.5789 25.6691 62.518 25.8518 62.4724 26.0345L62.4115 26.2476C62.3353 26.4912 62.2744 26.7348 62.2135 26.9784C62.1526 27.2677 62.107 27.4808 62.0765 27.694L62.0461 27.9071C62.0156 28.0898 62.0004 28.2573 61.9852 28.4248L61.9699 28.6379C61.9547 28.8663 61.9395 29.1099 61.9395 29.3383C61.9395 29.6123 61.7872 29.8559 61.5589 29.993C61.4066 30.0539 61.2848 30.0843 61.1478 30.0843ZM57.1132 26.0954L60.4779 28.0442C60.4931 27.9071 60.5083 27.8006 60.5236 27.6788L60.554 27.4352C60.5997 27.1916 60.6454 26.948 60.691 26.7044C60.7672 26.3542 60.8433 26.0802 60.9194 25.8061L60.9955 25.5777C61.0564 25.3798 61.1326 25.1819 61.1935 24.9839L61.2848 24.7251C61.3609 24.512 61.4523 24.2836 61.5436 24.0705L61.6045 23.9334L61.6807 23.7812C61.8177 23.4767 61.9699 23.1722 62.1222 22.8677L62.2897 22.548C62.4267 22.2891 62.5789 22.0303 62.7464 21.7867L62.9139 21.5279C63.127 21.2082 63.3402 20.8884 63.5686 20.5687L63.6904 20.4012C63.8883 20.1424 64.0862 19.8988 64.2994 19.6552L64.5582 19.3659C64.6952 19.2137 64.8322 19.0614 64.9845 18.9244L65.2738 18.6351C65.426 18.4829 65.5783 18.3611 65.7305 18.2241L66.0198 17.9652C66.1873 17.8282 66.37 17.6912 66.5374 17.5542H66.5527L63.1879 15.5749C63.0814 15.651 62.9748 15.7119 62.8682 15.8033L62.7312 15.8794C62.4724 16.0621 62.3201 16.1839 62.1831 16.3057L62.0156 16.458C61.7872 16.6559 61.6502 16.7777 61.5284 16.8995L61.2696 17.1583C61.1326 17.2953 61.0108 17.4171 60.889 17.5542L60.7519 17.7064C60.4779 18.0414 60.2952 18.2545 60.1125 18.4981L59.9907 18.6504C59.7775 18.9396 59.5796 19.2289 59.3817 19.5182L59.2903 19.6704C59.0924 19.9902 58.9554 20.2185 58.8336 20.4621L58.6813 20.7514C58.5443 21.0255 58.4073 21.2995 58.2855 21.5736L58.2094 21.7258C58.0723 22.0303 57.9962 22.2435 57.9201 22.4414L57.8592 22.5936C57.7678 22.8525 57.7069 23.0352 57.646 23.2179L57.5851 23.431C57.509 23.6746 57.4481 23.9182 57.3872 24.1618C57.3263 24.4511 57.2806 24.6642 57.2502 24.8774L57.2197 25.1057C57.1893 25.2732 57.1741 25.4407 57.1588 25.6082L57.1436 25.8213C57.1132 25.9279 57.1132 26.0192 57.1132 26.0954Z" fill="#0C5AE5"/>
<path d="M66.0356 29.3233C66.0356 26.7199 68.1671 23.0354 70.4357 21.7261L90.2434 10.3226C91.2635 9.74401 92.5271 10.4748 92.5271 11.6319L92.6489 68.8931L66.1574 84.1485L66.0356 29.3233Z" fill="white"/>
<path d="M66.157 84.9097C66.02 84.9097 65.8982 84.8792 65.7764 84.8031C65.548 84.6661 65.3957 84.4225 65.3957 84.1484L65.2739 29.3232C65.2739 26.4457 67.5424 22.5024 70.0546 21.0561L89.8623 9.65254C90.5779 9.24147 91.4305 9.24147 92.146 9.65254C92.8616 10.0636 93.2879 10.7944 93.2879 11.6318L93.4097 68.893C93.4097 69.167 93.2727 69.4106 93.0291 69.5476L66.5376 84.8183C66.4158 84.8792 66.294 84.9097 66.157 84.9097ZM66.7964 29.3232L66.9182 82.8391L91.8872 68.4514L91.7654 11.6318C91.7654 11.2359 91.5066 11.038 91.3848 10.9771C91.263 10.9162 90.9585 10.7792 90.6235 10.9771L70.8158 22.3806C68.7909 23.553 66.7964 26.9938 66.7964 29.3232Z" fill="#0C5AE5"/>
<path d="M85.4007 80.9663L76.418 86.1428L85.4007 80.9663Z" fill="white"/>
<path d="M76.418 86.9192C76.1592 86.9192 75.9004 86.7821 75.7633 86.5385C75.5502 86.1731 75.672 85.7164 76.0374 85.5032L85.0201 80.3267C85.3855 80.1136 85.8423 80.2354 86.0554 80.6008C86.2686 80.9662 86.1468 81.4229 85.7814 81.6361L76.7986 86.8126C76.6768 86.8735 76.5398 86.9192 76.418 86.9192Z" fill="#0C5AE5"/>
<path d="M79.7986 68.756C79.3723 68.756 79.0374 68.4211 79.0374 67.9948V28.8361C79.0374 28.4098 79.3723 28.0748 79.7986 28.0748C80.2249 28.0748 80.5599 28.4098 80.5599 28.8361V67.9795C80.5599 68.4058 80.2249 68.756 79.7986 68.756Z" fill="#0C5AE5"/>
<path d="M75.368 41.1987C75.2919 41.1987 75.2005 41.1835 75.1244 41.153C74.7285 41.016 74.5154 40.5897 74.6524 40.1938L79.0981 26.9481C79.1895 26.674 79.4331 26.4761 79.7223 26.4304C80.0116 26.3848 80.3009 26.5218 80.4531 26.7806L84.6704 33.4035C84.8988 33.7537 84.7922 34.2256 84.4421 34.454C84.0919 34.6824 83.6199 34.5758 83.3916 34.2256L80.0268 28.9426L76.0836 40.681C75.977 41.0008 75.6725 41.1987 75.368 41.1987Z" fill="#0C5AE5"/>
</g>
<defs>
<clipPath id="clip0">
<rect x="55.5754" width="42.7518" height="99.9977" fill="white"/>
</clipPath>
</defs>
</svg>
