<svg width="21" height="20" viewBox="0 0 21 20" fill="none" xmlns="http://www.w3.org/2000/svg">
<path d="M5.15906 19H1.04235V7.20047H5.15906V19ZM13.7059 11.0461C13.2251 11.0461 12.7641 11.2371 12.4241 11.577C12.0842 11.917 11.8932 12.3781 11.8932 12.8588V19H7.56471V7.20047H11.8932V8.54729C12.9077 7.68842 14.1894 7.20927 15.5186 7.192C18.2038 7.192 20.0673 9.18259 20.0673 12.9605V19H15.5186V12.8588C15.5197 12.6201 15.4736 12.3834 15.383 12.1625C15.2924 11.9416 15.1591 11.7408 14.9907 11.5716C14.8222 11.4023 14.622 11.2681 14.4015 11.1764C14.1811 11.0848 13.9446 11.0376 13.7059 11.0376V11.0461ZM5.2353 3.11765C5.2353 3.53648 5.1111 3.9459 4.87841 4.29415C4.64572 4.64239 4.31499 4.91382 3.92804 5.0741C3.54109 5.23438 3.1153 5.27631 2.70452 5.1946C2.29373 5.11289 1.9164 4.91121 1.62025 4.61505C1.32409 4.31889 1.1224 3.94156 1.04069 3.53078C0.958981 3.12 1.00092 2.69421 1.1612 2.30726C1.32148 1.92031 1.5929 1.58958 1.94115 1.35689C2.28939 1.1242 2.69882 1 3.11765 1C3.67634 1.00447 4.21063 1.22955 4.60411 1.6262C4.99759 2.02285 5.21837 2.55894 5.21835 3.11765H5.2353Z" stroke="#2253FF" stroke-width="1.2" stroke-linecap="round" stroke-linejoin="round"/>
</svg>
