<svg width="20" height="20" viewBox="0 0 20 20" fill="none" xmlns="http://www.w3.org/2000/svg">
<path d="M14.2 1H5.8C3.14903 1 1 3.14903 1 5.8V14.2C1 16.851 3.14903 19 5.8 19H14.2C16.851 19 19 16.851 19 14.2V5.8C19 3.14903 16.851 1 14.2 1Z" stroke="#2253FF" stroke-width="1.2" stroke-linecap="round" stroke-linejoin="round"/>
<path d="M10 13.9995C12.2091 13.9995 14 12.2087 14 9.99951C14 7.79037 12.2091 5.99951 10 5.99951C7.79086 5.99951 6 7.79037 6 9.99951C6 12.2087 7.79086 13.9995 10 13.9995Z" stroke="#2253FF" stroke-width="1.2" stroke-linecap="round" stroke-linejoin="round"/>
<path d="M15.8801 4.51978C15.8801 4.62586 15.8379 4.7276 15.7629 4.80262C15.6879 4.87763 15.5862 4.91978 15.4801 4.91978C15.374 4.91978 15.2722 4.87763 15.1972 4.80262C15.1222 4.7276 15.0801 4.62586 15.0801 4.51978" stroke="#2253FF" stroke-width="1.2" stroke-linecap="round" stroke-linejoin="round"/>
<path d="M15.0801 4.51914C15.0801 4.41305 15.1222 4.31131 15.1972 4.2363C15.2722 4.16128 15.374 4.11914 15.4801 4.11914C15.5862 4.11914 15.6879 4.16128 15.7629 4.2363C15.8379 4.31131 15.8801 4.41305 15.8801 4.51914" stroke="#2253FF" stroke-width="1.2" stroke-linecap="round" stroke-linejoin="round"/>
</svg>
