<?xml version="1.0" encoding="UTF-8"?>
<!DOCTYPE svg PUBLIC "-//W3C//DTD SVG 1.1//EN" "http://www.w3.org/Graphics/SVG/1.1/DTD/svg11.dtd">
<!-- Creator: CorelDRAW X6 -->
<svg xmlns="http://www.w3.org/2000/svg" xml:space="preserve" width="95mm" height="22mm" version="1.1" style="shape-rendering:geometricPrecision; text-rendering:geometricPrecision; image-rendering:optimizeQuality; fill-rule:evenodd; clip-rule:evenodd"
viewBox="0 0 9500 2200"
 xmlns:xlink="http://www.w3.org/1999/xlink">
 <defs>
  <style type="text/css">
   <![CDATA[
    .fil0 {fill:#383b3c;fill-rule:nonzero}
    .fil1 {fill:#8c75ff;fill-rule:nonzero}
   ]]>
  </style>
 </defs>
 <g id="Layer_x0020_1">
  <metadata id="CorelCorpID_0Corel-Layer"/>
  <path class="fil0" d="M7772 1499c0,285 -228,589 -652,589 -303,0 -541,-116 -726,-355l-7 -9 271 -212 6 10c113,182 266,274 452,274 199,0 337,-122 337,-298 0,-185 -199,-249 -410,-317l-15 -5c-232,-75 -551,-178 -551,-554 0,-303 265,-532 618,-536l24 0c257,3 448,93 616,289l8 9 -254 188 -6 -10c-86,-133 -214,-201 -378,-201 -183,0 -311,105 -311,255 0,170 182,231 394,301l24 8c294,100 559,219 559,572zm-3178 -1411l-21 0c-570,4 -999,433 -999,1000 0,561 444,1000 1011,1000 634,0 966,-498 966,-989l0 -114 -1014 0 0 294 689 0c-68,320 -306,511 -641,511 -400,0 -701,-301 -701,-701 0,-401 300,-704 698,-704 264,0 479,130 605,366l5 10 270 -162 -5 -9c-175,-310 -496,-497 -862,-501zm1264 26l309 0 0 1947 -309 0 0 -1947zm-3725 0l1177 0 0 294 -868 0 0 529 868 0 0 294 -868 0 0 534 868 0 0 296 -1177 0 0 -1947zm-1424 1240l290 -801 290 801 -581 0zm446 -1240l-311 0 -709 1933 -5 15 324 0 148 -411 797 0 150 411 321 0 -712 -1940 -3 -7z"/>
  <path class="fil1" d="M8683 1407c103,-162 118,-187 118,-187 91,-150 163,-253 191,-368 -42,167 -191,291 -367,291 -210,0 -387,-177 -387,-387 0,-210 177,-387 387,-387 208,0 378,173 379,385 0,-1 0,-2 0,-3 0,-327 -221,-585 -535,-648l0 0c-312,63 -533,322 -533,650 0,379 271,665 631,665 40,0 79,-4 116,-11z"/>
  <path class="fil0" d="M8607 88c-48,1 -94,6 -138,15 314,63 535,320 535,648 0,1 0,2 0,3 0,1 0,1 0,2 0,33 -4,64 -12,95 -27,116 -100,219 -192,370 0,0 -15,24 -118,187 -103,162 -424,654 -424,654l367 0 533 -841c89,-129 141,-290 147,-445l0 -48c-12,-364 -299,-636 -678,-639l-20 0z"/>
 </g>
</svg>
