<svg width="181" height="181" viewBox="0 0 181 181" fill="none" xmlns="http://www.w3.org/2000/svg">
<circle cx="90.5" cy="90.5" r="90.5" fill="#EEF2FF"/>
<path d="M77.9281 21.4873L21.7207 70.6177L79.8332 119.609C85.6379 124.502 94.1241 124.502 99.928 119.609L158.04 70.6177L101.834 21.4873C94.9886 15.5042 84.7734 15.5042 77.9281 21.4873Z" fill="#163ECD"/>
<path d="M124.313 36.4388H55.4492C49.9264 36.4388 45.4492 40.9159 45.4492 46.4388V134.547H134.313V46.4388C134.313 40.9159 129.836 36.4388 124.313 36.4388Z" fill="white"/>
<path d="M87.9173 53.8423H57.3958C56.4854 53.8423 55.7466 53.1042 55.7466 52.1931V51.8485C55.7466 50.9381 56.4847 50.1992 57.3958 50.1992H87.9173C88.8277 50.1992 89.5666 50.9373 89.5666 51.8485V52.1931C89.5666 53.1042 88.8285 53.8423 87.9173 53.8423Z" fill="#2253FF"/>
<path opacity="0.6" d="M96.8542 62.9494H57.3958C56.4854 62.9494 55.7466 62.2113 55.7466 61.3001V60.9555C55.7466 60.0451 56.4847 59.3063 57.3958 59.3063H96.8542C97.7646 59.3063 98.5035 60.0444 98.5035 60.9555V61.3001C98.5035 62.2105 97.7646 62.9494 96.8542 62.9494Z" fill="#C2C9D6"/>
<path opacity="0.6" d="M121.486 62.9494H102.564C101.653 62.9494 100.915 62.2113 100.915 61.3001V60.9555C100.915 60.0451 101.653 59.3063 102.564 59.3063H121.486C122.397 59.3063 123.136 60.0444 123.136 60.9555V61.3001C123.135 62.2105 122.397 62.9494 121.486 62.9494Z" fill="#C2C9D6"/>
<path opacity="0.6" d="M121.487 53.8423H93.3934C92.483 53.8423 91.7441 53.1042 91.7441 52.1931V51.8485C91.7441 50.9381 92.4822 50.1992 93.3934 50.1992H121.487C122.397 50.1992 123.136 50.9373 123.136 51.8485V52.1931C123.135 53.1042 122.397 53.8423 121.487 53.8423Z" fill="#C2C9D6"/>
<path opacity="0.6" d="M121.487 82.7982H86.5364C85.6261 82.7982 84.8872 82.0601 84.8872 81.1489V80.8043C84.8872 79.8939 85.6253 79.1551 86.5364 79.1551H121.486C122.396 79.1551 123.135 79.8932 123.135 80.8043V81.1489C123.135 82.0593 122.397 82.7982 121.487 82.7982Z" fill="#C2C9D6"/>
<path opacity="0.6" d="M87.9173 72.9629H57.3958C56.4854 72.9629 55.7466 72.2248 55.7466 71.3137V70.9691C55.7466 70.0587 56.4847 69.3198 57.3958 69.3198H87.9173C88.8277 69.3198 89.5666 70.0579 89.5666 70.9691V71.3137C89.5666 72.2248 88.8285 72.9629 87.9173 72.9629Z" fill="#C2C9D6"/>
<path d="M105.014 72.9629H94.013C93.1026 72.9629 92.3638 72.2248 92.3638 71.3137V70.9691C92.3638 70.0587 93.1019 69.3198 94.013 69.3198H105.014C105.924 69.3198 106.663 70.0579 106.663 70.9691V71.3137C106.663 72.2248 105.924 72.9629 105.014 72.9629Z" fill="#2253FF"/>
<path opacity="0.6" d="M121.486 72.9629H111.16C110.25 72.9629 109.511 72.2248 109.511 71.3137V70.9691C109.511 70.0587 110.249 69.3198 111.16 69.3198H121.486C122.397 69.3198 123.136 70.0579 123.136 70.9691V71.3137C123.135 72.2248 122.397 72.9629 121.486 72.9629Z" fill="#C2C9D6"/>
<path opacity="0.6" d="M80.1632 82.7982H57.3958C56.4854 82.7982 55.7466 82.0601 55.7466 81.1489V80.8043C55.7466 79.8939 56.4847 79.1551 57.3958 79.1551H80.1632C81.0736 79.1551 81.8124 79.8932 81.8124 80.8043V81.1489C81.8117 82.0593 81.0736 82.7982 80.1632 82.7982Z" fill="#C2C9D6"/>
<path d="M87.9173 93.3617H57.3958C56.4854 93.3617 55.7466 92.6236 55.7466 91.7125V91.3679C55.7466 90.4575 56.4847 89.7186 57.3958 89.7186H87.9173C88.8277 89.7186 89.5666 90.4567 89.5666 91.3679V91.7125C89.5666 92.6236 88.8285 93.3617 87.9173 93.3617Z" fill="#2253FF"/>
<path opacity="0.6" d="M110.386 93.3617H93.4525C92.5421 93.3617 91.8032 92.6236 91.8032 91.7125V91.3679C91.8032 90.4575 92.5413 89.7186 93.4525 89.7186H110.386C111.296 89.7186 112.035 90.4567 112.035 91.3679V91.7125C112.034 92.6236 111.296 93.3617 110.386 93.3617Z" fill="#C2C9D6"/>
<path d="M77.4013 117.559L21.7206 70.6177C19.4371 72.7462 18 75.7716 18 79.1393V152.342C18 155.877 19.58 159.039 22.0659 161.177L81.2596 120.075C79.903 119.4 78.6029 118.572 77.4013 117.559Z" fill="#2253FF"/>
<path d="M161.762 152.342V79.1393C161.762 75.7708 160.325 72.7454 158.041 70.6177L102.36 117.559C101.159 118.572 99.8587 119.4 98.5029 120.076L157.697 161.178C160.182 159.039 161.762 155.877 161.762 152.342Z" fill="#2253FF"/>
<path d="M98.5029 120.075L89.8812 114.089L81.2596 120.075L22.0659 161.177C24.1064 162.932 26.7556 164 29.6591 164H150.103C153.006 164 155.655 162.932 157.697 161.177L98.5029 120.075Z" fill="#163ECD"/>
</svg>
