<svg width="118" height="103" viewBox="0 0 118 103" fill="none" xmlns="http://www.w3.org/2000/svg">
<rect y="4.16537" width="98.3271" height="98.3271" rx="49.1635" fill="#2253FF"/>
<g clip-path="url(#clip0)">
<path d="M102.604 48.7747L76.3709 63.9152C72.7128 66.0322 69.3934 66.2184 66.9885 64.8297L80.9774 72.9588C83.3822 74.3476 86.7016 74.1613 90.3597 72.0443L116.593 56.9038L102.604 48.7747Z" fill="white"/>
<path d="M84.4493 74.7031C83.0267 74.7031 81.7226 74.3644 80.5541 73.687L66.5822 65.5748C66.1757 65.3377 66.0402 64.8296 66.2773 64.4232C66.5144 64.0167 67.0394 63.8813 67.4289 64.1184C69.6644 65.4224 72.6959 65.0837 75.9476 63.2038L102.181 48.0634C102.435 47.9109 102.774 47.9109 103.028 48.0634L117.017 56.1925C117.271 56.3449 117.44 56.6159 117.44 56.9207C117.44 57.2255 117.271 57.4965 117.017 57.6489L90.7832 72.7894C88.5646 74.0596 86.4138 74.7031 84.4493 74.7031ZM71.5612 66.5063L81.4008 72.2136C83.6364 73.5176 86.6509 73.1959 89.9195 71.2991L114.883 56.8868L102.587 49.74L76.7774 64.6434C74.9822 65.6934 73.2209 66.32 71.5612 66.5063Z" fill="#0C5AE5"/>
<path d="M116.576 56.9038L114.544 58.0724L90.3595 72.0443C83.0941 76.2443 77.1667 72.8572 77.1328 64.5079C77.1159 56.1586 83.0095 45.9464 90.2749 41.7633L116.508 26.6229L116.44 8.97592L89.191 24.7091C81.5699 29.1124 74.4231 36.6488 69.0376 45.9634C63.669 55.2611 60.7222 65.2192 60.7391 73.9749C60.7899 92.0622 73.6271 99.3784 89.3603 90.284L116.61 74.5508L116.576 56.9038Z" fill="#D4DDFC"/>
<path d="M76.5907 95.0428C73.7117 95.0428 71.0528 94.3654 68.6987 93.0105C63.0422 89.7589 59.9091 83.0015 59.8922 73.9579C59.8752 65.0667 62.8559 54.973 68.3092 45.5399C73.7455 36.1067 81.0109 28.4518 88.7674 23.9808L116.017 8.24759C116.271 8.09517 116.593 8.09517 116.864 8.24759C117.118 8.40001 117.287 8.67098 117.287 8.97582L117.338 26.6228C117.338 26.9276 117.185 27.1986 116.914 27.351L90.6812 42.4915C83.6529 46.556 77.9456 56.4295 77.9625 64.5078C77.9794 68.2167 79.1988 70.9603 81.4174 72.2305C83.6529 73.5176 86.6674 73.1789 89.9191 71.299L116.152 56.1585C116.406 56.0061 116.728 56.0061 116.999 56.1585C117.253 56.311 117.423 56.5819 117.423 56.8868L117.473 74.5337C117.473 74.8386 117.321 75.1095 117.05 75.262L89.8005 90.9952C85.1602 93.6879 80.6722 95.0428 76.5907 95.0428ZM115.594 10.4323L89.6142 25.4373C82.1117 29.7728 75.0665 37.2075 69.7826 46.3697C64.4817 55.5489 61.5857 65.3377 61.6027 73.9579C61.6196 82.358 64.4479 88.6072 69.5624 91.5371C74.7109 94.5009 81.6037 93.7896 88.9537 89.5387L115.78 74.0426L115.729 58.3602L90.7659 72.7724C86.9723 74.9571 83.348 75.2958 80.5706 73.7039C77.8101 72.1119 76.2859 68.8603 76.2689 64.5078C76.252 55.8876 82.3319 45.3536 89.8344 41.0181L115.644 26.1147L115.594 10.4323Z" fill="#0C5AE5"/>
<path d="M102.469 0.846741L75.2025 16.58C67.5814 20.9832 60.4346 28.5196 55.049 37.8342C49.6804 47.1319 46.7336 57.09 46.7506 65.8458C46.7675 74.8217 49.9514 81.1556 55.0829 84.1363L69.0717 92.2654C63.9402 89.2847 60.7733 82.9677 60.7394 73.9749C60.7225 65.2191 63.6523 55.2779 69.0379 45.9633C74.4065 36.6656 81.5703 29.1123 89.1913 24.7091L116.441 8.97585L102.469 0.846741Z" fill="white"/>
<path d="M69.0887 93.0946C68.9362 93.0946 68.8008 93.0607 68.6653 92.9761L54.6764 84.8469C49.0538 81.5953 45.9546 74.838 45.9207 65.8451C45.8868 56.937 48.8844 46.8433 54.3208 37.4102C59.7741 27.977 67.0395 20.3221 74.779 15.8511L102.029 0.117886C102.283 -0.0345347 102.621 -0.0345347 102.875 0.117886L116.864 8.247C117.118 8.39942 117.288 8.67039 117.288 8.97523C117.288 9.28007 117.118 9.55104 116.864 9.70346L89.6147 25.4367C82.1122 29.7722 75.0669 37.207 69.783 46.3691C64.4822 55.5483 61.5862 65.3371 61.6031 73.9573C61.62 82.3235 64.4314 88.5559 69.5121 91.5196C69.9185 91.7567 70.054 92.2648 69.8169 92.6712C69.6645 92.9422 69.3766 93.0946 69.0887 93.0946ZM102.452 1.82839L75.6258 17.3245C68.1233 21.66 61.0781 29.0948 55.7942 38.257C50.4933 47.4361 47.5973 57.2249 47.6143 65.8282C47.6312 74.1944 50.4425 80.4267 55.5232 83.3905L63.4999 88.0308C61.1628 84.4574 59.9095 79.6646 59.8926 73.9743C59.8757 65.0661 62.8563 54.9725 68.3096 45.5393C73.746 36.1061 81.0114 28.4512 88.7679 23.9802L114.747 8.97523L102.452 1.82839Z" fill="#0C5AE5"/>
<path d="M97.8626 37.0382V19.8316L83.7891 11.8888L102.469 0.84671L116.441 8.97582L116.492 26.6058L97.8626 37.0382Z" fill="#5F87ED"/>
<path d="M97.8624 37.885C97.7099 37.885 97.5745 37.8511 97.439 37.7664C97.1849 37.614 97.0156 37.3431 97.0156 37.0382V20.3227L83.3824 12.6339C83.1114 12.4815 82.959 12.2106 82.959 11.9057C82.959 11.6009 83.1114 11.3299 83.3824 11.1605L102.045 0.118497C102.299 -0.0339243 102.638 -0.0339243 102.909 0.118497L116.898 8.24761C117.152 8.40003 117.321 8.671 117.321 8.97584L117.372 26.6228C117.372 26.9276 117.203 27.2155 116.932 27.368L98.3027 37.8003C98.1503 37.8511 98.0148 37.885 97.8624 37.885ZM85.4824 11.8718L98.2688 19.0864C98.5398 19.2388 98.6922 19.5268 98.6922 19.8316V35.5987L115.628 26.1147L115.577 9.45004L102.452 1.81206L85.4824 11.8718Z" fill="#0C5AE5"/>
<path d="M97.8618 85.3726V68.166L116.576 56.9038L116.627 74.5338L97.8618 85.3726Z" fill="#5F87ED"/>
<path d="M97.8624 86.2194C97.71 86.2194 97.5745 86.1856 97.439 86.1009C97.185 85.9485 97.0156 85.6775 97.0156 85.3727V68.166C97.0156 67.8612 97.168 67.5902 97.4221 67.4378L116.136 56.1756C116.39 56.0232 116.729 56.0062 116.983 56.1587C117.254 56.3111 117.406 56.5821 117.406 56.8869L117.457 74.5338C117.457 74.8387 117.305 75.1097 117.034 75.2621L98.2689 86.1009C98.1503 86.1856 98.0148 86.2194 97.8624 86.2194ZM98.7092 68.6402V83.9162L115.78 74.0596L115.73 58.3942L98.7092 68.6402Z" fill="#0C5AE5"/>
<path d="M117.169 8.55231C116.932 8.14585 116.424 8.01037 116.017 8.24747L97.4391 19.1032C97.0326 19.3403 96.8971 19.8653 97.1342 20.2548C97.2867 20.5258 97.5746 20.6782 97.8625 20.6782C98.0149 20.6782 98.1504 20.6444 98.2859 20.5597L116.864 9.70393C117.271 9.46683 117.406 8.94183 117.169 8.55231Z" fill="#0C5AE5"/>
<path d="M97.862 68.166L83.2126 59.9692L102.604 48.7747L116.576 56.9038L97.862 68.166Z" fill="#5F87ED"/>
<path d="M97.8621 69.0127C97.7266 69.0127 97.5742 68.9788 97.4556 68.9111L82.8063 60.7142C82.5353 60.5618 82.3829 60.2909 82.366 59.986C82.366 59.6812 82.5184 59.3933 82.7894 59.2408L102.181 48.0464C102.435 47.894 102.773 47.894 103.027 48.0464L117.016 56.1755C117.27 56.3279 117.44 56.5989 117.44 56.9037C117.44 57.2086 117.287 57.4795 117.033 57.632L98.3193 68.8942C98.1669 68.9619 98.0145 69.0127 97.8621 69.0127ZM84.9233 59.9521L97.8451 67.1837L114.916 56.9207L102.604 49.7569L84.9233 59.9521Z" fill="#0C5AE5"/>
</g>
<defs>
<clipPath id="clip0">
<rect x="45.9207" y="6.10352e-05" width="71.5531" height="95.0429" fill="white"/>
</clipPath>
</defs>
</svg>
