<svg width="120" height="99" viewBox="0 0 120 99" fill="none" xmlns="http://www.w3.org/2000/svg">
<circle cx="49.1635" cy="49.1635" r="49.1635" fill="#2253FF"/>
<g clip-path="url(#clip0)">
<path d="M80.004 86.0291L96.207 76.6037L96.1912 81.5056L79.9883 90.9152L80.004 86.0291Z" fill="#0C5AE5"/>
<path d="M79.9883 91.7036C79.8464 91.7036 79.7203 91.6721 79.5942 91.5933C79.342 91.4514 79.2002 91.1993 79.2002 90.9156L79.216 86.0295C79.216 85.7457 79.3736 85.4936 79.61 85.3517L95.8129 75.9263C96.0493 75.7844 96.3646 75.7844 96.601 75.9263C96.8532 76.0681 96.995 76.3203 96.995 76.604L96.9793 81.4901C96.9793 81.7738 96.8217 82.026 96.5852 82.1679L80.3823 91.5775C80.272 91.6721 80.1301 91.7036 79.9883 91.7036ZM80.7921 86.4865L80.7764 89.5601L95.4031 81.0646L95.4189 77.991L80.7921 86.4865Z" fill="#0C5AE5"/>
<path d="M89.4289 55.9405C89.0191 55.7041 88.6251 55.4519 88.231 55.1682C88.1049 55.0736 87.9788 54.979 87.8527 54.8845C87.5848 54.6953 87.3326 54.4904 87.0647 54.2698C86.9228 54.1437 86.781 54.0176 86.6233 53.8915C86.3869 53.6866 86.1662 53.4817 85.9456 53.261C85.8037 53.1192 85.6461 52.9773 85.5043 52.8197C85.2836 52.599 85.0787 52.3784 84.8738 52.1419C84.7477 52.0001 84.6058 51.8425 84.4798 51.7006C84.1645 51.3381 83.8651 50.9598 83.5656 50.5658C83.5025 50.487 83.4395 50.4082 83.3764 50.3136C83.0297 49.8407 82.6987 49.3521 82.3677 48.8635C82.2889 48.7374 82.2101 48.5956 82.1155 48.4695C81.8791 48.0912 81.6427 47.6972 81.4378 47.3031C81.359 47.1455 81.2644 46.9879 81.1856 46.8303C80.9492 46.3732 80.7127 45.9003 80.5078 45.4433C80.4763 45.3644 80.4448 45.3014 80.4133 45.2226C80.1453 44.6237 79.9247 44.0247 79.704 43.41C79.6567 43.2682 79.6094 43.1105 79.5621 42.9687C79.373 42.3855 79.1996 41.8023 79.0578 41.2191C79.0578 41.1876 79.042 41.1561 79.0262 41.1246C78.8844 40.5099 78.7741 39.9109 78.6953 39.312C78.6795 39.1701 78.6637 39.0125 78.648 38.8707C78.5849 38.2717 78.5376 37.6728 78.5376 37.0738C78.5534 33.6221 79.767 31.1948 81.7215 30.0599L65.5186 39.4696C63.5484 40.6044 62.3347 43.0317 62.3347 46.4835C62.3347 47.0667 62.382 47.6656 62.445 48.2803C62.4608 48.4222 62.4766 48.5798 62.4923 48.7217C62.5711 49.3206 62.6815 49.9353 62.8233 50.5343C62.8233 50.5658 62.8391 50.5973 62.8548 50.6288C62.9967 51.212 63.1701 51.7952 63.3592 52.3784C63.4065 52.5202 63.4538 52.6778 63.5168 52.8197C63.7217 53.4186 63.9582 54.0333 64.2261 54.6323C64.2261 54.648 64.2419 54.6638 64.2419 54.6638C64.2734 54.7268 64.3049 54.7899 64.3364 54.8372C64.5413 55.31 64.7778 55.7671 65.0142 56.2242C65.093 56.3818 65.1876 56.5394 65.2664 56.697C65.487 57.0911 65.7077 57.4851 65.9441 57.8634C66.0229 57.9895 66.1017 58.1313 66.1963 58.2574C66.5115 58.7618 66.8583 59.2504 67.205 59.7075C67.2681 59.7863 67.3311 59.8651 67.3942 59.9597C67.6937 60.3537 67.9931 60.732 68.3084 61.0945C68.3556 61.1576 68.4187 61.2206 68.466 61.2837C68.5448 61.3625 68.6236 61.4413 68.7024 61.5358C68.9073 61.7723 69.128 61.9929 69.3329 62.2136C69.4747 62.3554 69.6166 62.5131 69.7742 62.6549C69.9949 62.8756 70.2313 63.0805 70.4519 63.2854C70.5938 63.4115 70.7356 63.5376 70.8933 63.6637C71.1454 63.8843 71.4134 64.0735 71.6813 64.2784C71.8074 64.3729 71.9335 64.4675 72.0596 64.5621C72.4537 64.8458 72.8477 65.098 73.2575 65.3344C76.2995 67.0839 79.042 67.2573 81.028 66.1067L97.2309 56.697C95.2134 57.8476 92.4709 57.69 89.4289 55.9405Z" fill="#D4DDFC"/>
<path d="M78.1282 67.6514C76.489 67.6514 74.6764 67.1155 72.8323 66.0437C72.4067 65.7915 71.9812 65.5236 71.5714 65.2399L71.1773 64.9404C70.8936 64.7355 70.6257 64.5306 70.3577 64.31L70.011 64.0105C69.6642 63.6953 69.4278 63.4904 69.1914 63.2697C69.0338 63.1278 68.8919 62.9702 68.7343 62.8126C68.5136 62.5919 68.293 62.3555 68.0723 62.1191L67.8359 61.8669C67.8201 61.8511 67.7256 61.7408 67.7256 61.7251C67.3473 61.2837 67.032 60.8897 66.7326 60.4956L66.5277 60.2435C66.1652 59.7549 65.8184 59.2505 65.4874 58.7461L65.3298 58.4309C64.9988 57.9107 64.7781 57.5009 64.5417 57.0911L64.2738 56.6025C64.0216 56.1297 63.7852 55.6568 63.5803 55.1682L63.4857 54.9791C63.202 54.3329 62.9656 53.7024 62.7449 53.0719L62.603 52.6464C62.3981 52.0001 62.209 51.4012 62.0671 50.8023C61.8938 50.0615 61.7834 49.431 61.7046 48.8163L61.6416 48.3592C61.5785 47.7288 61.5312 47.0983 61.5312 46.4836C61.547 42.8584 62.8079 40.1317 65.1091 38.7919L81.312 29.3823C81.6903 29.1616 82.1632 29.2877 82.3838 29.666C82.6045 30.0442 82.4784 30.5171 82.1001 30.7378C80.3033 31.778 79.3103 34.0319 79.3103 37.0739C79.3103 37.6256 79.3576 38.2088 79.4207 38.7762L79.4679 39.2017C79.5468 39.7849 79.6413 40.3681 79.7832 40.9513C79.9408 41.6133 80.1142 42.1807 80.2875 42.7481L80.4294 43.1737C80.6343 43.7568 80.855 44.34 81.1071 44.9232L80.5082 45.4433L81.2332 45.1123C81.4381 45.5694 81.6588 46.0265 81.8952 46.4678L82.1001 46.8619C82.3523 47.319 82.573 47.6972 82.7936 48.0598L83.0301 48.4538C83.3453 48.9424 83.6605 49.4152 84.0073 49.8723L84.1964 50.1088C84.4801 50.487 84.7796 50.8496 85.0791 51.2121L85.4573 51.6376C85.6623 51.8583 85.8672 52.079 86.0721 52.2839C86.2139 52.4257 86.3558 52.5676 86.4976 52.7094C86.7183 52.9143 86.9389 53.1192 87.1596 53.3084L87.5694 53.6709C87.8216 53.8758 88.0738 54.0649 88.326 54.2541L88.6885 54.522C89.0668 54.79 89.445 55.0421 89.8391 55.2628C92.5343 56.8074 95.0089 57.0911 96.8215 56.0351C97.1997 55.8145 97.6726 55.9406 97.8932 56.3188C98.1139 56.6971 97.9878 57.1857 97.6095 57.3906L81.4066 66.8003C80.4294 67.3677 79.3261 67.6514 78.1282 67.6514ZM65.0146 54.5378C65.2195 54.9949 65.4401 55.4362 65.6765 55.8933L65.9287 56.3503C66.1336 56.7444 66.3701 57.1227 66.5907 57.4852L66.8271 57.8635C67.1424 58.3521 67.4576 58.8249 67.8044 59.282L67.9935 59.5184C68.2772 59.8967 68.5767 60.2592 68.8762 60.6217C68.8762 60.6375 68.9707 60.7321 68.9707 60.7478L69.1283 60.9212C69.1283 60.9212 69.2387 61.0315 69.2387 61.0473C69.4436 61.268 69.6485 61.4886 69.8534 61.7093C69.9952 61.8511 70.1371 61.993 70.2789 62.1191C70.4996 62.324 70.7203 62.5289 70.9409 62.718L71.3665 63.0805C71.6029 63.2854 71.8551 63.4746 72.123 63.6637L72.4856 63.9317C72.8638 64.1996 73.2421 64.4518 73.6362 64.6725C76.3156 66.2171 78.806 66.5008 80.6185 65.4448L93.1648 58.1472C91.8566 57.958 90.4695 57.4379 89.0352 56.6183C88.6097 56.3661 88.1841 56.0982 87.7743 55.8145C87.6955 55.7514 87.6009 55.6884 87.5064 55.6253L87.3645 55.5307C87.0808 55.3258 86.8128 55.1209 86.5449 54.8845C86.4346 54.79 86.3085 54.6796 86.1981 54.585C85.8671 54.2856 85.615 54.0649 85.3943 53.8443C85.2367 53.7024 85.0948 53.5448 84.9372 53.3872C84.7166 53.1665 84.4959 52.9301 84.291 52.6937L83.8812 52.2366C83.5502 51.8583 83.235 51.4643 82.9355 51.0702L82.7306 50.818C82.3681 50.3294 82.0213 49.825 81.6903 49.3207L81.4381 48.9109C81.2017 48.5168 80.9653 48.107 80.7289 47.713L80.4609 47.2244C80.2087 46.7515 79.9723 46.2787 79.7674 45.7901L80.3821 45.2542L79.6571 45.5694C79.3891 44.9547 79.1527 44.3243 78.932 43.7095L78.806 43.3628C78.5695 42.6535 78.3962 42.0388 78.2543 41.4399C78.0809 40.6991 77.9706 40.0686 77.8918 39.4382L77.8287 38.9811C77.7657 38.3506 77.7184 37.7201 77.7184 37.1054C77.7184 35.5135 77.9706 34.095 78.4434 32.8971L65.8972 40.1947C64.1004 41.235 63.1074 43.4889 63.1074 46.5309C63.1074 47.0825 63.1547 47.6657 63.2177 48.2331L63.265 48.6587C63.3438 49.2261 63.4384 49.8093 63.5803 50.3925C63.7379 51.0545 63.9113 51.6219 64.0846 52.1735L64.2265 52.5991C64.4314 53.1823 64.652 53.7654 64.9042 54.3486L64.2895 54.8845L65.0146 54.5378Z" fill="#0C5AE5"/>
<path d="M50.9883 15.9999L67.1912 6.59021L70.8637 11.1611L54.6607 20.5707L50.9883 15.9999Z" fill="white"/>
<path d="M54.6605 21.3595C54.4241 21.3595 54.2034 21.2649 54.0458 21.06L50.3733 16.4891C50.2315 16.3158 50.1684 16.0793 50.2157 15.8587C50.263 15.638 50.3891 15.4331 50.594 15.3228L66.7969 5.91311C67.1279 5.72397 67.5692 5.80277 67.8057 6.10225L71.4781 10.6731C71.62 10.8465 71.683 11.0829 71.6357 11.3036C71.5884 11.5242 71.4623 11.7291 71.2574 11.8395L55.0545 21.2649C54.9284 21.3279 54.8023 21.3595 54.6605 21.3595ZM52.1702 16.2212L54.8496 19.5469L69.6813 10.9253L67.0018 7.61536L52.1702 16.2212Z" fill="#0C5AE5"/>
<path d="M54.6597 20.5716L70.8626 11.162L82.7153 10.1375L66.5124 19.5471L54.6597 20.5716Z" fill="white"/>
<path d="M54.6594 21.3596C54.3127 21.3596 54.0132 21.1389 53.9029 20.8079C53.7925 20.4611 53.9344 20.0671 54.2654 19.8937L70.4683 10.4683C70.5629 10.4052 70.6732 10.3737 70.7993 10.358L82.652 9.33346C82.9988 9.28617 83.3613 9.5226 83.4716 9.88511C83.5819 10.2319 83.4401 10.6259 83.1091 10.7993L66.9062 20.2247C66.8116 20.2878 66.7013 20.3193 66.5752 20.3351L54.7225 21.3596C54.7067 21.3596 54.6752 21.3596 54.6594 21.3596ZM71.1145 11.9341L58.1112 19.4997L66.2757 18.7904L79.279 11.2249L71.1145 11.9341Z" fill="#0C5AE5"/>
<path d="M98.729 75.359L114.932 65.9336L118.604 70.5045L102.401 79.9299L98.729 75.359Z" fill="#D4DDFC"/>
<path d="M102.401 80.7181C102.165 80.7181 101.944 80.6078 101.786 80.4187L98.1138 75.8478C97.972 75.6744 97.9089 75.438 97.9562 75.2016C98.0035 74.9809 98.1296 74.776 98.3345 74.6657L114.537 65.256C114.868 65.0669 115.31 65.1457 115.546 65.4451L119.219 70.016C119.36 70.1894 119.423 70.4258 119.376 70.6465C119.329 70.8671 119.203 71.072 118.998 71.1824L102.795 80.6078C102.669 80.6866 102.543 80.7181 102.401 80.7181ZM99.9106 75.5798L102.59 78.9055L117.422 70.2839L114.742 66.9583L99.9106 75.5798Z" fill="#0C5AE5"/>
<path d="M102.401 79.9298L118.604 70.5044L111.748 80.1662L95.5452 89.5759L102.401 79.9298Z" fill="#D4DDFC"/>
<path d="M95.5452 90.364C95.3245 90.364 95.1196 90.2695 94.962 90.1119C94.7098 89.8439 94.6941 89.4341 94.899 89.1189L101.755 79.4728C101.818 79.3782 101.897 79.2994 102.007 79.2521L118.21 69.8267C118.526 69.6375 118.935 69.7006 119.188 69.9843C119.44 70.2522 119.456 70.662 119.251 70.9773L112.379 80.6234C112.316 80.7179 112.237 80.7967 112.126 80.844L95.9235 90.2537C95.8131 90.3325 95.6713 90.364 95.5452 90.364ZM102.953 80.5288L98.3035 87.0699L111.212 79.5673L115.862 73.0263L102.953 80.5288Z" fill="#0C5AE5"/>
<path d="M98.7763 59.6603L114.979 50.2349L114.932 65.9334L98.729 75.3588L98.7763 59.6603Z" fill="#D4DDFC"/>
<path d="M98.7288 76.1469C98.5869 76.1469 98.4608 76.1154 98.3347 76.0366C98.0825 75.8947 97.9407 75.6426 97.9407 75.3588L97.988 59.6603C97.988 59.3766 98.1456 59.1244 98.382 58.9826L114.585 49.5729C114.837 49.431 115.137 49.431 115.373 49.5729C115.609 49.699 115.767 49.9669 115.767 50.2506L115.72 65.9492C115.72 66.2329 115.562 66.4851 115.326 66.6269L99.1228 76.0366C98.9967 76.1154 98.8706 76.1469 98.7288 76.1469ZM99.5641 60.1174L99.5326 73.9876L114.159 65.4921L114.191 51.6219L99.5641 60.1174Z" fill="#0C5AE5"/>
<path d="M80.1777 22.5578L96.3964 13.1481L96.3807 18.0185L80.1777 27.4439V22.5578Z" fill="white"/>
<path d="M80.178 28.2316C80.0361 28.2316 79.91 28.2001 79.7839 28.1213C79.5317 27.9794 79.3899 27.7273 79.3899 27.4436L79.4057 22.5575C79.4057 22.2737 79.5633 22.0216 79.7997 21.8797L96.0026 12.47C96.2548 12.3282 96.5543 12.3282 96.7907 12.47C97.0429 12.6119 97.1847 12.8798 97.1847 13.1478L97.169 18.0181C97.169 18.3018 97.0114 18.554 96.7749 18.6959L80.572 28.1213C80.4459 28.1843 80.3041 28.2316 80.178 28.2316ZM80.9661 23.0145V26.0723L95.5928 17.5768L95.6086 14.519L80.9661 23.0145Z" fill="#0C5AE5"/>
<path d="M66.5271 14.6764L82.73 5.25098L96.3953 13.1475L80.1766 22.5572L66.5271 14.6764Z" fill="white"/>
<path d="M80.1773 23.3455C80.0354 23.3455 79.9093 23.314 79.7832 23.2352L66.1179 15.3544C65.8815 15.2125 65.7239 14.9603 65.7239 14.6766C65.7239 14.3929 65.8657 14.1407 66.1179 13.9989L82.3208 4.57343C82.573 4.43158 82.8725 4.43158 83.1089 4.57343L96.7742 12.4542C97.0106 12.5961 97.1683 12.8483 97.1683 13.132C97.1683 13.4157 97.0264 13.6679 96.7742 13.8097L80.5713 23.2194C80.461 23.314 80.3191 23.3455 80.1773 23.3455ZM68.0881 14.6609L80.1773 21.6432L94.804 13.132L82.7149 6.14959L68.0881 14.6609Z" fill="#0C5AE5"/>
<path d="M80.1772 27.4435L96.3802 18.0181L108.186 32.7079L91.9827 42.1333L80.1772 27.4435Z" fill="white"/>
<path d="M91.9831 42.9215C91.7466 42.9215 91.526 42.827 91.3684 42.6221L79.5472 27.9323C79.4053 27.7589 79.3423 27.5225 79.3895 27.3018C79.4368 27.0811 79.5629 26.8762 79.7678 26.7659L95.9707 17.3405C96.3017 17.1513 96.7431 17.2301 96.9795 17.5296L108.801 32.2194C108.943 32.3928 109.006 32.6292 108.958 32.8499C108.911 33.0705 108.785 33.2754 108.58 33.3858L92.3771 42.7955C92.251 42.8743 92.1249 42.9215 91.9831 42.9215ZM81.3597 27.6643L92.1722 41.109L107.004 32.4874L96.1914 19.0427L81.3597 27.6643Z" fill="#0C5AE5"/>
<path d="M91.9849 42.1332L108.188 32.7078L111.876 32.3926L95.6731 41.8023L91.9849 42.1332Z" fill="white"/>
<path d="M91.9839 42.9214C91.6371 42.9214 91.3377 42.7007 91.2273 42.3697C91.117 42.0229 91.2588 41.6289 91.5898 41.4555L107.793 32.0459C107.887 31.9828 107.998 31.9513 108.124 31.9355L111.812 31.6203C112.159 31.5888 112.521 31.8094 112.632 32.1719C112.742 32.5345 112.6 32.9127 112.269 33.0861L96.0661 42.48C95.9716 42.5431 95.8612 42.5746 95.7351 42.5904L92.0469 42.9056C92.0312 42.9214 92.0154 42.9214 91.9839 42.9214Z" fill="#0C5AE5"/>
<path d="M95.6711 41.8027L111.874 32.3931L118.667 49.9357L102.464 59.3454L95.6711 41.8027Z" fill="#D4DDFC"/>
<path d="M102.464 60.1333C102.369 60.1333 102.291 60.1175 102.196 60.086C101.975 60.0072 101.802 59.8338 101.723 59.6289L94.93 42.0862C94.7882 41.7237 94.93 41.3139 95.261 41.1248L111.464 31.7151C111.669 31.6048 111.905 31.5732 112.126 31.6521C112.347 31.7309 112.52 31.9042 112.599 32.1091L119.392 49.6518C119.534 50.0143 119.392 50.4241 119.061 50.6133L102.858 60.0229C102.732 60.1017 102.606 60.1333 102.464 60.1333ZM96.648 42.1493L102.858 58.2103L117.69 49.5887L111.48 33.5277L96.648 42.1493Z" fill="#0C5AE5"/>
<path d="M98.776 59.6604L102.464 59.3451L95.671 41.8025L91.9828 42.1177L80.1616 27.4279L80.1773 22.5418L66.512 14.661L66.4963 19.5471L54.6435 20.5716L50.9869 16.0007L44.1148 25.6626L47.7873 30.2177L47.74 45.9163L44.0518 46.2315L50.845 63.7741L54.5332 63.4589L66.3387 78.133L66.3229 83.019L79.9882 90.8998L80.004 86.0138L91.8567 85.005L95.5449 89.5759L102.417 79.9298L98.7445 75.3589L98.776 59.6604ZM73.2265 65.3503C67.1898 61.867 62.3037 53.4188 62.3194 46.4837C62.3352 39.5486 67.2528 36.743 73.2895 40.2263C79.3262 43.7096 84.1965 52.1578 84.1808 59.1087C84.165 66.0438 79.2632 68.8336 73.2265 65.3503Z" fill="white"/>
<path d="M79.9886 91.7035C79.8467 91.7035 79.7206 91.672 79.5945 91.5932L65.9292 83.7124C65.677 83.5705 65.5352 83.3183 65.5352 83.0346L65.5509 78.4165L54.1868 64.2941L50.9242 64.5621C50.5774 64.5936 50.2464 64.3887 50.1203 64.0577L43.3113 46.5308C43.2168 46.2944 43.2483 46.0422 43.3744 45.8215C43.5005 45.6166 43.7211 45.4748 43.9733 45.459L46.9365 45.2068L46.9838 30.5013L43.4847 26.1668C43.264 25.8989 43.2483 25.5048 43.4532 25.2211L50.3252 15.5593C50.4671 15.3544 50.7035 15.2283 50.9399 15.2283C51.1921 15.2283 51.4286 15.3228 51.5704 15.5277L55.0064 19.7518L65.7243 18.8219L65.7401 14.6608C65.7401 14.3771 65.8977 14.125 66.1341 13.9831C66.3705 13.8412 66.6858 13.8412 66.9222 13.9831L80.5875 21.8639C80.8397 22.0058 80.9815 22.2737 80.9815 22.5416L80.9658 27.144L92.3457 41.2822L95.6083 40.9985C95.9551 40.9669 96.2861 41.1718 96.4122 41.5028L103.205 59.0455C103.3 59.2819 103.268 59.5341 103.142 59.7548C103.016 59.9597 102.78 60.1015 102.543 60.1173L99.5802 60.3695L99.5329 75.0593L103.032 79.4095C103.253 79.6774 103.268 80.0715 103.064 80.3552L96.2073 90.0013C96.0654 90.2062 95.829 90.3323 95.5925 90.3323C95.3404 90.3323 95.1039 90.2377 94.9621 90.0328L91.5576 85.7929L80.8397 86.7071L80.8239 90.8839C80.8239 91.1676 80.6663 91.4198 80.4299 91.5617C80.2565 91.672 80.1304 91.7035 79.9886 91.7035ZM67.1113 82.5776L79.2005 89.5599L79.2162 86.0293C79.2162 85.6195 79.5315 85.2728 79.9413 85.2413L91.794 84.2325C92.062 84.2168 92.3141 84.3271 92.4718 84.5162L95.498 88.2675L101.409 79.9454L98.1144 75.8316C98.0041 75.6897 97.941 75.5164 97.941 75.343L97.9883 59.6444C97.9883 59.2346 98.3035 58.8879 98.7133 58.8564L101.346 58.6357L95.1512 42.6219L92.0462 42.8899C91.7782 42.9056 91.5261 42.7953 91.3684 42.6062L79.5472 27.9163C79.4369 27.7745 79.3739 27.6011 79.3739 27.412L79.3896 22.983L67.3005 16.0006L67.2847 19.5154C67.2847 19.9252 66.9695 20.2562 66.5597 20.3035L54.707 21.328C54.4548 21.3595 54.1868 21.2334 54.0292 21.0285L51.0188 17.3088L45.0924 25.6309L48.3866 29.7289C48.4969 29.8708 48.5599 30.0442 48.5599 30.2175L48.5284 45.9161C48.5284 46.3259 48.2132 46.6569 47.8034 46.7042L45.1554 46.9406L51.3655 62.9386L54.4705 62.6864C54.7385 62.6707 54.9907 62.781 55.1483 62.9701L66.9537 77.6442C67.0641 77.786 67.1271 77.9594 67.1271 78.1328L67.1113 82.5776ZM78.1287 67.6513C76.4895 67.6513 74.6769 67.1154 72.8328 66.0436C66.5912 62.4342 61.516 53.6708 61.5317 46.4835C61.5475 42.8426 62.8242 40.1158 65.1411 38.7761C67.4739 37.4364 70.5001 37.7043 73.6839 39.5484C79.9255 43.1578 84.985 51.9213 84.9692 59.1085C84.9535 62.7495 83.6768 65.4762 81.3756 66.816C80.3984 67.3676 79.3108 67.6513 78.1287 67.6513ZM73.6209 64.6724C76.3004 66.217 78.7749 66.5007 80.5875 65.4447C82.3843 64.4044 83.3931 62.1505 83.3931 59.1085C83.4088 52.4256 78.6961 44.2769 72.8958 40.9197C70.2164 39.375 67.7418 39.0913 65.9135 40.1473C64.1009 41.1876 63.1079 43.4415 63.0921 46.4835C63.0921 53.1507 67.8049 61.3152 73.6209 64.6724Z" fill="#0C5AE5"/>
</g>
<defs>
<clipPath id="clip0">
<rect x="43.2649" y="4.46344" width="76.1915" height="87.2404" fill="white"/>
</clipPath>
</defs>
</svg>
