<svg width="159" height="65" viewBox="0 0 159 65" fill="none" xmlns="http://www.w3.org/2000/svg">
<path d="M53.6795 36.1515C53.9274 38.4654 56.0348 42.4322 62.1502 42.4322C67.4806 42.4322 70.0424 39.0439 70.0424 35.7383C70.0424 32.7632 68.0177 30.3253 64.0096 29.4988L61.1172 28.879C60.0015 28.6724 59.2578 28.0526 59.2578 27.0609C59.2578 25.904 60.4148 25.0362 61.861 25.0362C64.1749 25.0362 65.0427 26.5651 65.2079 27.7634L69.7945 26.7304C69.5466 24.5404 67.6045 20.8628 61.8197 20.8628C57.4397 20.8628 54.2167 23.8792 54.2167 27.5155C54.2167 30.3666 55.9934 32.7219 59.9189 33.5896L62.6047 34.2094C64.1749 34.54 64.7947 35.2837 64.7947 36.1928C64.7947 37.2671 63.927 38.2175 62.1089 38.2175C59.7123 38.2175 58.514 36.7299 58.39 35.1184L53.6795 36.1515ZM73.0601 36.2754C73.0601 39.4571 75.7047 42.3909 80.0433 42.3909C83.0597 42.3909 85.0018 40.986 86.0348 39.3745C86.0348 40.1596 86.1174 41.2752 86.2414 41.8124H91.2825C91.1585 41.1099 91.0346 39.6637 91.0346 38.5894V28.5898C91.0346 24.4991 88.638 20.8628 82.192 20.8628C76.7377 20.8628 73.8039 24.3751 73.4733 27.5568L78.3492 28.5898C78.5145 26.813 79.8367 25.2841 82.2333 25.2841C84.5473 25.2841 85.6629 26.4824 85.6629 27.9287C85.6629 28.6311 85.291 29.2096 84.1341 29.3749L79.1343 30.1187C75.746 30.6145 73.0601 32.6392 73.0601 36.2754ZM81.2003 38.3001C79.4235 38.3001 78.5558 37.1432 78.5558 35.9449C78.5558 34.3747 79.6714 33.5896 81.0763 33.383L85.6629 32.6805V33.5896C85.6629 37.1845 83.5142 38.3001 81.2003 38.3001ZM95.2135 36.2754C95.2135 39.4571 97.858 42.3909 102.197 42.3909C105.213 42.3909 107.155 40.986 108.188 39.3745C108.188 40.1596 108.271 41.2752 108.395 41.8124H113.436C113.312 41.1099 113.188 39.6637 113.188 38.5894V28.5898C113.188 24.4991 110.791 20.8628 104.345 20.8628C98.891 20.8628 95.9572 24.3751 95.6267 27.5568L100.502 28.5898C100.668 26.813 101.99 25.2841 104.387 25.2841C106.701 25.2841 107.816 26.4824 107.816 27.9287C107.816 28.6311 107.444 29.2096 106.287 29.3749L101.288 30.1187C97.8993 30.6145 95.2135 32.6392 95.2135 36.2754ZM103.354 38.3001C101.577 38.3001 100.709 37.1432 100.709 35.9449C100.709 34.3747 101.825 33.5896 103.23 33.383L107.816 32.6805V33.5896C107.816 37.1845 105.668 38.3001 103.354 38.3001ZM116.992 36.1515C117.24 38.4654 119.347 42.4322 125.463 42.4322C130.793 42.4322 133.355 39.0439 133.355 35.7383C133.355 32.7632 131.33 30.3253 127.322 29.4988L124.43 28.879C123.314 28.6724 122.57 28.0526 122.57 27.0609C122.57 25.904 123.727 25.0362 125.173 25.0362C127.487 25.0362 128.355 26.5651 128.52 27.7634L133.107 26.7304C132.859 24.5404 130.917 20.8628 125.132 20.8628C120.752 20.8628 117.529 23.8792 117.529 27.5155C117.529 30.3666 119.306 32.7219 123.231 33.5896L125.917 34.2094C127.487 34.54 128.107 35.2837 128.107 36.1928C128.107 37.2671 127.239 38.2175 125.421 38.2175C123.025 38.2175 121.826 36.7299 121.703 35.1184L116.992 36.1515ZM144.475 49.8286L157.243 21.4827H151.376L146.376 33.383L140.963 21.4827H134.806L143.442 39.2505L138.649 49.8286H144.475Z" fill="#061137"/>
<path opacity="0.6" d="M0.336426 40.0587C0.336426 38.3189 1.74685 36.9085 3.4867 36.9085H11.8572V48.4292H3.4867C1.74685 48.4292 0.336426 47.0188 0.336426 45.279V40.0587Z" fill="#2253FF"/>
<path opacity="0.8" d="M11.8572 27.3858C11.8572 25.646 13.2676 24.2356 15.0074 24.2356H23.3779V48.4291H11.8572V27.3858Z" fill="#2253FF"/>
<path d="M22.7847 15.8651C22.7847 14.1253 24.1951 12.7148 25.9349 12.7148H31.1551C32.895 12.7148 34.3054 14.1253 34.3054 15.8651V45.2789C34.3054 47.0187 32.895 48.4292 31.1551 48.4292H22.7847V15.8651Z" fill="#2253FF"/>
</svg>
