<svg width="24" height="19" viewBox="0 0 24 19" fill="none" xmlns="http://www.w3.org/2000/svg">
<path d="M22.7992 4.67827L20.7697 3.81753L21.8328 1.52223L19.3587 2.33515C18.5706 1.60824 17.5366 1.19892 16.4594 1.1875C15.3067 1.19003 14.202 1.64426 13.387 2.45081C12.5719 3.25736 12.1129 4.35056 12.1104 5.49119V6.44757C8.68915 7.14572 5.70284 5.29992 2.92915 2.14388C2.44593 4.69421 2.92915 6.60696 4.37882 7.88213L1.19922 7.40394C1.32206 8.41693 1.80068 9.35499 2.55145 10.0542C3.30221 10.7535 4.27739 11.1694 5.3066 11.2294L2.64888 12.1858C3.61533 14.0986 5.37425 14.3951 7.72271 14.5768C5.80318 15.8723 3.52213 16.5412 1.19922 16.4895C13.531 21.9122 20.7697 13.9456 20.7697 6.92576V6.13196L22.7992 4.67827Z" stroke="#2253FF" stroke-width="1.2" stroke-linecap="round" stroke-linejoin="round"/>
</svg>
